<svg width="364" height="364" viewBox="0 0 364 364" fill="none" xmlns="http://www.w3.org/2000/svg">
<path d="M109.182 271.48C82.5536 257.625 47.3476 244.792 41.0995 227.826C34.8547 210.81 57.6234 189.707 77.5598 168.244C97.5564 146.738 114.713 124.968 138.69 119.593C162.607 114.218 193.34 125.291 222.596 137.143C251.852 148.995 279.632 161.574 297.893 181.547C316.16 201.463 324.908 228.77 320.879 255.743C316.845 282.763 299.97 309.489 272.975 319.274C245.978 329.107 208.802 321.993 181.216 311.022C153.682 300.103 135.748 285.28 109.182 271.48Z" fill="#010101"/>
<path d="M101.876 139.523C107.748 135.592 150.226 136.926 154.063 139.523C157.899 142.119 180.61 227.518 176.009 232.221C171.408 236.924 88.3904 237.69 85.071 232.221C81.7516 226.752 96.004 143.45 101.876 139.523Z" fill="#98D7B3"/>
<path fill-rule="evenodd" clip-rule="evenodd" d="M129.289 139.548C129.289 139.548 95.9077 123.099 106.762 114.614C117.617 106.13 130.84 142.931 130.84 142.931L129.289 139.548ZM129.963 137.007C134.9 130.712 149.338 117.495 152.758 123.5C157.208 131.33 130.54 139.324 130.54 139.324C130.456 139.286 128.806 138.481 129.964 137.009L129.963 137.007Z" stroke="#98D7B3" stroke-width="0.991"/>
<path d="M146.643 196.718C146.648 197.745 146.459 198.761 146.087 199.702C145.369 201.55 144.026 203.013 142.345 203.778C141.476 204.18 140.544 204.387 139.603 204.387C138.662 204.387 137.73 204.18 136.862 203.778C135.181 203.013 133.837 201.55 133.119 199.702C132.753 198.76 132.564 197.745 132.564 196.719C132.564 195.694 132.753 194.679 133.119 193.737C133.838 191.889 135.181 190.426 136.862 189.66C137.73 189.258 138.662 189.051 139.603 189.051C140.544 189.051 141.476 189.258 142.345 189.66C144.025 190.426 145.369 191.889 146.087 193.737C146.459 194.677 146.648 195.693 146.643 196.718ZM142.493 196.718C142.494 196.292 142.412 195.87 142.252 195.481C142.101 195.103 141.889 194.759 141.626 194.467C141.365 194.181 141.057 193.954 140.718 193.797C140.19 193.556 139.609 193.493 139.049 193.616C138.488 193.739 137.973 194.043 137.569 194.49C137.295 194.777 137.079 195.123 136.932 195.507C136.785 195.891 136.712 196.305 136.716 196.722C136.711 197.136 136.784 197.547 136.931 197.927C137.077 198.308 137.295 198.651 137.569 198.933C137.977 199.373 138.494 199.671 139.054 199.79C139.613 199.909 140.192 199.844 140.719 199.602C141.058 199.446 141.366 199.218 141.627 198.933C141.887 198.645 142.099 198.309 142.253 197.939C142.414 197.559 142.496 197.143 142.494 196.723L142.493 196.718ZM128.856 182.357C128.862 183.383 128.672 184.399 128.301 185.339C127.581 187.187 126.238 188.651 124.558 189.419C123.689 189.821 122.756 190.028 121.814 190.028C120.872 190.028 119.939 189.821 119.07 189.419C117.389 188.653 116.046 187.19 115.327 185.341C114.956 184.401 114.766 183.385 114.772 182.359C114.764 181.32 114.953 180.29 115.327 179.337C115.684 178.427 116.193 177.601 116.829 176.903C117.473 176.204 118.236 175.652 119.073 175.281C120.832 174.497 122.797 174.497 124.556 175.281C125.392 175.653 126.154 176.205 126.797 176.904C127.433 177.602 127.942 178.428 128.299 179.338C128.673 180.29 128.863 181.319 128.856 182.357ZM124.706 182.357C124.71 181.94 124.637 181.526 124.49 181.142C124.343 180.758 124.127 180.412 123.853 180.125C123.313 179.527 122.58 179.192 121.816 179.192C121.051 179.192 120.319 179.527 119.778 180.125C119.505 180.412 119.288 180.758 119.141 181.142C118.994 181.526 118.921 181.94 118.925 182.357C118.92 182.771 118.993 183.182 119.14 183.563C119.287 183.944 119.504 184.286 119.778 184.568C120.324 185.155 121.055 185.483 121.816 185.483C122.576 185.483 123.307 185.155 123.853 184.568C124.127 184.286 124.345 183.944 124.492 183.563C124.639 183.182 124.711 182.771 124.706 182.357ZM124.67 205.278L121.367 203.494L136.675 173.878L140.116 175.706L124.67 205.278Z" fill="white"/>
<path d="M175.281 147.499C184.899 142.922 254.465 144.474 260.747 147.499C267.03 150.524 304.215 249.988 296.688 255.464C289.161 260.94 153.194 261.834 147.757 255.468C142.32 249.102 165.663 152.077 175.281 147.499Z" fill="#3F7A64"/>
<path d="M219.218 212.13C217.73 211.101 215.262 200.365 213.456 190.66C211.65 180.955 210.066 169.955 210.539 168.279C212.544 163.311 214.841 158.495 217.417 153.861C219.255 150.417 220.966 147.447 222.356 145.285C224.026 142.694 225.233 141.246 225.956 140.971C227.341 140.447 231.65 143.117 235.021 145.449C241.345 149.825 248.608 155.939 250.001 157.607C251.246 159.104 253.857 170.112 255.758 179.691C257.721 189.623 259.375 200.232 258.632 201.549C258.29 202.154 256.091 203.194 252.268 204.566C248.77 205.82 244.223 207.237 239.466 208.553C231.084 210.871 220.758 213.196 219.218 212.13ZM227.495 182.745C226.887 182.935 226.266 183.119 225.643 183.303L223.803 183.841C224.103 185.047 224.625 186.17 225.336 187.141C226.028 188.103 226.847 188.943 227.767 189.632L226.783 191.376L228.341 192.454L229.326 190.71C229.948 191.119 230.624 191.419 231.329 191.599C232.021 191.778 232.737 191.812 233.44 191.699C234.156 191.577 234.84 191.287 235.445 190.847C236.136 190.329 236.716 189.649 237.142 188.854C237.586 188.125 237.851 187.28 237.911 186.403C237.94 185.64 237.832 184.879 237.593 184.163C237.351 183.439 237.014 182.76 236.593 182.145C236.166 181.516 235.728 180.914 235.294 180.351L237.449 176.534C237.922 176.895 238.333 177.348 238.662 177.87C239.017 178.409 239.269 179.023 239.401 179.674C240.548 179.299 241.73 178.901 242.912 178.49C242.589 177.425 242.079 176.441 241.411 175.595C240.769 174.765 240.031 174.032 239.217 173.414L240.133 171.791L238.589 170.723L237.659 172.37C237.069 172.014 236.434 171.758 235.775 171.611C235.094 171.455 234.394 171.431 233.706 171.54C233.007 171.656 232.337 171.925 231.735 172.333C231.081 172.782 230.533 173.398 230.136 174.128C229.724 174.811 229.464 175.591 229.377 176.407C229.319 177.115 229.395 177.828 229.601 178.502C229.819 179.2 230.136 179.856 230.54 180.445C230.96 181.067 231.421 181.686 231.914 182.289L229.558 186.462C229.303 186.281 229.073 186.06 228.875 185.806C228.653 185.526 228.452 185.226 228.274 184.91C228.085 184.575 227.921 184.224 227.785 183.858C227.649 183.504 227.553 183.132 227.5 182.751L227.495 182.745ZM228.975 149.336C228.68 149.122 228.335 149.009 227.982 149.013C227.63 149.017 227.286 149.137 226.995 149.358C226.705 149.579 226.481 149.891 226.351 150.254C226.222 150.617 226.193 151.015 226.268 151.396C226.344 151.777 226.521 152.125 226.776 152.394C227.031 152.664 227.353 152.843 227.7 152.908C228.048 152.974 228.405 152.924 228.727 152.764C229.048 152.603 229.319 152.341 229.505 152.009C229.749 151.575 229.83 151.053 229.73 150.553C229.631 150.054 229.36 149.618 228.975 149.336ZM227.046 217.547C226.432 216.85 225.985 215.994 225.747 215.057C231.699 214.26 237.591 212.993 243.379 211.265C248.142 209.942 252.692 208.529 256.181 207.277C259.999 205.903 262.204 204.862 262.544 204.259C263.274 202.966 261.827 192.603 260.366 184.123C258.795 175.039 256.561 164.188 255.079 160.405C256.043 161.214 256.961 162.088 257.827 163.023C259.077 164.525 261.684 175.529 263.584 185.107C265.548 195.04 267.202 205.647 266.458 206.965C266.117 207.569 263.917 208.61 260.094 209.984C256.585 211.24 252.041 212.656 247.291 213.97C238.912 216.287 228.584 218.611 227.049 217.548L227.046 217.547ZM231.102 187.564L233.23 183.795C233.56 184.207 233.811 184.69 233.966 185.214C234.025 185.479 234.032 185.755 233.984 186.023C233.937 186.291 233.837 186.545 233.691 186.765C233.441 187.264 233.025 187.636 232.532 187.803C232.046 187.935 231.532 187.848 231.103 187.562L231.102 187.564ZM233.983 178.879C233.642 178.506 233.389 178.047 233.247 177.54C233.194 177.293 233.19 177.036 233.235 176.786C233.279 176.537 233.372 176.301 233.506 176.095C233.621 175.86 233.783 175.658 233.979 175.504C234.175 175.349 234.401 175.247 234.639 175.203C235.081 175.132 235.533 175.207 235.936 175.42L233.986 178.874L233.983 178.879Z" fill="white"/>
<path fill-rule="evenodd" clip-rule="evenodd" d="M221.945 143.356C221.945 143.356 131.897 141.56 149.138 109.658C166.379 77.7573 228.412 149.575 228.412 149.575L221.945 143.356ZM221.269 136.628C226.99 116.401 248.248 69.4468 261.234 79.7828C278.143 93.2451 224.594 141.444 224.594 141.444H224.586C224.364 141.444 219.92 141.379 221.268 136.629L221.269 136.628Z" stroke="#3F7A64" stroke-width="0.99"/>
<path d="M301.794 109.469L330.498 90.9374L334 118.524L301.794 109.469Z" fill="#D4B57C"/>
<path d="M35.7325 155.142L69.9907 164.281L39.8237 180.546L35.7325 155.142Z" fill="#D4B57C"/>
<path d="M59.7552 104.143L61.2766 143.109L38.8239 115.505L59.7552 104.143Z" fill="#D4B57C"/>
<path d="M292.641 44.0125L274.326 74.9494L273.056 34.7485L292.641 44.0125Z" fill="#D4B57C"/>
</svg>
