<svg width="364" height="364" viewBox="0 0 364 364" fill="none" xmlns="http://www.w3.org/2000/svg">
<path d="M158.269 103.218C180.782 89.8483 205.317 69.569 223.667 72.9338C242.063 76.3182 254.201 103.356 267.677 128.443C281.171 153.597 295.914 176.751 292.642 197.24C289.398 217.688 268.098 235.449 246.575 251.734C225.052 268.02 203.352 282.854 177.937 287.065C152.57 291.303 123.495 284.92 99.2086 269.129C74.8826 253.313 55.32 228.024 55.439 203.184C55.5151 178.319 75.2944 153.86 95.3941 138.407C115.43 122.974 135.825 116.57 158.269 103.218Z" fill="#D4B57C"/>
<path fill-rule="evenodd" clip-rule="evenodd" d="M182.583 121.18L275.437 240.572C274.663 241.417 273.713 242.093 272.65 242.556C271.587 243.018 270.435 243.257 269.269 243.256H96.9286C95.7596 243.256 94.6039 243.016 93.5383 242.55C92.4726 242.084 91.5215 241.404 90.748 240.554L182.583 121.18Z" fill="#010101"/>
<path fill-rule="evenodd" clip-rule="evenodd" d="M269.269 121.18C271.458 121.18 273.558 122.023 275.106 123.524C276.655 125.026 277.524 127.062 277.524 129.185V235.251C277.527 237.213 276.784 239.107 275.437 240.571L182.841 121.515L90.7534 240.566C89.4099 239.103 88.6689 237.211 88.6719 235.252V129.186C88.6719 127.063 89.5417 125.027 91.09 123.525C92.6382 122.024 94.7381 121.181 96.9277 121.181L269.269 121.18Z" fill="#3F7A64"/>
<path fill-rule="evenodd" clip-rule="evenodd" d="M269.268 121.18C271.266 121.177 273.197 121.879 274.7 123.156L190.946 181.732C188.661 183.33 185.915 184.191 183.098 184.191C180.28 184.191 177.535 183.33 175.25 181.732L91.4961 123.155C92.9987 121.879 94.929 121.177 96.9264 121.18H269.268Z" fill="#98D7B3"/>
</svg>
