<svg width="28" height="28" viewBox="0 0 28 28" fill="none" xmlns="http://www.w3.org/2000/svg">
<path d="M21.3448 27.3337H23.3569C24.3751 27.3337 25.2115 26.5458 25.3327 25.5518L27.3327 5.57608H21.2721V0.666992H18.8842V5.57608H12.86L13.2236 8.41245C15.2963 8.98214 17.2357 10.0124 18.3993 11.1518C20.1448 12.8731 21.3448 14.6549 21.3448 17.564V27.3337ZM0.666016 26.1215V24.9094H18.8842V26.1215C18.8842 26.7761 18.3387 27.3337 17.6357 27.3337H1.87814C1.21147 27.3337 0.666016 26.7761 0.666016 26.1215ZM18.8842 17.6367C18.8842 7.93972 0.666016 7.93972 0.666016 17.6367H18.8842ZM0.666016 20.0609H18.8478V22.4852H0.666016V20.0609Z" fill="white"/>
</svg>
