<svg width="364" height="364" viewBox="0 0 364 364" fill="none" xmlns="http://www.w3.org/2000/svg">
<path d="M292.886 323.947C218.761 344.387 27.284 334.052 30.0292 252.942C32.2905 186.142 77.7415 78.4843 151.84 58.0423C225.939 37.6004 284.125 33.7569 303.087 111.597C322.048 189.437 366.981 303.504 292.886 323.947Z" fill="#D4B57C"/>
<path d="M149.564 286.639H298.033C298.531 286.639 299.008 286.429 299.36 286.054C299.712 285.68 299.91 285.171 299.91 284.642V61.2874C299.91 60.7577 299.712 60.2496 299.36 59.875C299.008 59.5005 298.531 59.29 298.033 59.29H149.564C149.066 59.29 148.589 59.5005 148.237 59.875C147.885 60.2496 147.688 60.7577 147.688 61.2874V284.642C147.688 285.171 147.885 285.68 148.237 286.054C148.589 286.429 149.066 286.639 149.564 286.639Z" fill="#010101"/>
<path d="M257.087 268.749H282.327C282.824 268.749 283.302 268.538 283.654 268.164C284.006 267.789 284.203 267.281 284.203 266.751V187.419C284.203 186.89 284.006 186.381 283.654 186.007C283.302 185.632 282.824 185.422 282.327 185.422H257.087C256.589 185.422 256.112 185.632 255.76 186.007C255.408 186.381 255.21 186.89 255.21 187.419V266.753C255.21 267.282 255.408 267.79 255.76 268.164C256.112 268.539 256.589 268.749 257.087 268.749Z" fill="#98D7B3"/>
<path d="M211.664 268.749H236.905C237.403 268.749 237.88 268.538 238.232 268.164C238.584 267.789 238.782 267.281 238.782 266.751V156.558C238.782 156.028 238.584 155.52 238.232 155.146C237.88 154.771 237.403 154.561 236.905 154.561H211.664C211.166 154.561 210.689 154.771 210.337 155.146C209.985 155.52 209.787 156.028 209.787 156.558V266.753C209.787 267.282 209.985 267.79 210.337 268.164C210.689 268.538 211.166 268.749 211.664 268.749Z" fill="#98D7B3"/>
<path d="M165.27 268.748H190.512C191.009 268.748 191.487 268.537 191.839 268.163C192.191 267.788 192.388 267.28 192.388 266.751V167.891C192.388 167.361 192.191 166.853 191.839 166.479C191.487 166.104 191.009 165.894 190.512 165.894H165.27C164.772 165.894 164.295 166.104 163.943 166.479C163.591 166.853 163.394 167.361 163.394 167.891V266.752C163.394 267.281 163.592 267.789 163.944 268.163C164.296 268.538 164.773 268.748 165.27 268.748Z" fill="#98D7B3"/>
<path d="M278.406 83.7251H172.084C171.163 83.706 170.285 83.3031 169.64 82.6029C168.995 81.9028 168.634 80.9613 168.634 79.9807C168.634 79.0001 168.995 78.0586 169.64 77.3585C170.285 76.6584 171.163 76.2555 172.084 76.2363H278.406C279.327 76.2555 280.204 76.6584 280.85 77.3585C281.495 78.0586 281.856 79.0001 281.856 79.9807C281.856 80.9613 281.495 81.9028 280.85 82.6029C280.204 83.3031 279.327 83.706 278.406 83.7251Z" fill="white"/>
<path d="M172.084 93.3818H278.406C279.327 93.401 280.204 93.8039 280.85 94.504C281.495 95.2042 281.856 96.1456 281.856 97.1263C281.856 98.1069 281.495 99.0484 280.85 99.7485C280.204 100.449 279.327 100.851 278.406 100.871H172.084C171.163 100.851 170.285 100.449 169.64 99.7485C168.995 99.0484 168.634 98.1069 168.634 97.1263C168.634 96.1456 168.995 95.2042 169.64 94.504C170.285 93.8039 171.163 93.401 172.084 93.3818Z" fill="white"/>
<path d="M172.084 110.527H278.406C279.327 110.546 280.204 110.949 280.85 111.65C281.495 112.35 281.856 113.291 281.856 114.272C281.856 115.252 281.495 116.194 280.85 116.894C280.204 117.594 279.327 117.997 278.406 118.016H172.084C171.163 117.997 170.285 117.594 169.64 116.894C168.995 116.194 168.634 115.252 168.634 114.272C168.634 113.291 168.995 112.35 169.64 111.65C170.285 110.949 171.163 110.546 172.084 110.527Z" fill="white"/>
<path d="M64.5939 229.994L150.325 138.744C154.151 134.671 154.151 128.069 150.325 123.997C146.499 119.924 140.296 119.924 136.47 123.997L50.7386 215.247C46.9126 219.319 46.9126 225.922 50.7386 229.994C54.5646 234.066 60.7678 234.066 64.5939 229.994Z" fill="#3F7A64"/>
<path d="M160.537 194.569C202.973 194.569 237.375 157.953 237.375 112.785C237.375 67.6163 202.973 31 160.537 31C118.1 31 83.6982 67.6163 83.6982 112.785C83.6982 157.953 118.1 194.569 160.537 194.569Z" fill="#3F7A64"/>
<path opacity="0.91" d="M116.455 159.679C125.174 168.959 136.282 175.279 148.375 177.839C160.468 180.399 173.002 179.085 184.393 174.063C195.785 169.041 205.521 160.537 212.371 149.625C219.221 138.713 222.877 125.884 222.877 112.761C222.877 99.6372 219.221 86.8084 212.371 75.8966C205.521 64.9848 195.785 56.4802 184.393 51.458C173.002 46.4359 160.468 45.122 148.375 47.6823C136.282 50.2426 125.174 56.5622 116.455 65.8419C104.78 78.2946 98.2236 95.1684 98.2236 112.761C98.2236 130.353 104.78 147.227 116.455 159.679Z" fill="white"/>
<path opacity="0.03" d="M116.454 65.8616C123.106 58.7757 131.181 53.387 140.071 50.1004C148.962 46.8138 158.436 45.715 167.783 46.8864C152.611 48.7772 138.619 56.5323 128.465 68.6793C118.311 80.8263 112.702 96.5192 112.702 112.778C112.702 129.037 118.311 144.73 128.465 156.877C138.619 169.024 152.611 176.779 167.783 178.67C154.922 180.276 141.91 177.579 130.555 170.953C119.2 164.327 110.066 154.101 104.422 141.697C98.7776 129.292 96.9034 115.324 99.0597 101.733C101.216 88.1427 107.296 75.6043 116.454 65.8602V65.8616Z" fill="#010101"/>
</svg>
