<svg width="24" height="25" viewBox="0 0 24 25" fill="none" xmlns="http://www.w3.org/2000/svg">
<path fill-rule="evenodd" clip-rule="evenodd" d="M10.4465 0.532997C11.0232 0.183695 11.6845 -0.000976562 12.3588 -0.000976562C13.033 -0.000976563 13.6944 0.183695 14.2711 0.532997L15.6291 1.36366C17.5345 2.52833 19.7045 2.78766 21.8845 3.049C22.5891 3.13366 23.2945 3.21766 23.9925 3.333C23.9925 3.333 24.0078 4.55566 23.9918 5.11033L23.8525 9.87766C23.7325 13.9663 21.9145 17.843 18.7958 20.6603C17.3245 21.989 15.8025 23.1897 14.0538 24.187C13.5385 24.4785 12.9607 24.642 12.369 24.6637C11.7773 24.6854 11.1891 24.5647 10.6538 24.3117C8.63446 23.3517 6.84646 22.1343 5.21379 20.6603C2.09513 17.843 0.277126 13.9663 0.157793 9.87766L0.0191262 5.12566C0.00245949 4.56233 0.0191262 3.333 0.0191262 3.333C0.585793 3.26633 1.16313 3.211 1.74513 3.15566C4.31379 2.91166 6.96779 2.65966 9.14513 1.329L10.4471 0.532997H10.4465ZM10.6658 10.6663V5.99966H13.3325V10.6663H17.9991V13.333H13.3325V17.9997H10.6658V13.333H5.99913V10.6663H10.6658Z" fill="white"/>
</svg>
