<svg width="26" height="24" viewBox="0 0 26 24" fill="none" xmlns="http://www.w3.org/2000/svg">
<path d="M6.60085 11.9998V8.79981H19.4008V11.9998H6.60085ZM16.2008 18.3998V16.7998H19.4008V18.3998H16.2008ZM25.8008 3.19981C25.8011 3.69633 25.6474 4.18071 25.3608 4.58619C25.0742 4.99168 24.669 5.2983 24.2008 5.46381V22.3998C24.2008 22.612 24.1166 22.8155 23.9665 22.9655C23.8165 23.1155 23.613 23.1998 23.4008 23.1998H13.0008V15.9998C13.0008 15.7876 12.9166 15.5842 12.7665 15.4341C12.6165 15.2841 12.413 15.1998 12.2008 15.1998H5.80085C5.58867 15.1998 5.38519 15.2841 5.23516 15.4341C5.08513 15.5842 5.00085 15.7876 5.00085 15.9998V23.1998H2.60085C2.38867 23.1998 2.18519 23.1155 2.03516 22.9655C1.88513 22.8155 1.80085 22.612 1.80085 22.3998V5.46381C1.26618 5.27572 0.815332 4.90449 0.528153 4.41584C0.240973 3.9272 0.135997 3.35269 0.231816 2.79407C0.327635 2.23544 0.618066 1.72875 1.05167 1.36375C1.48527 0.998736 2.03406 0.798963 2.60085 0.799807H23.4008C24.0374 0.799807 24.6478 1.05266 25.0979 1.50275C25.548 1.95284 25.8008 2.56329 25.8008 3.19981ZM1.80085 3.19981C1.80085 3.41198 1.88513 3.61546 2.03516 3.76549C2.18519 3.91552 2.38867 3.99981 2.60085 3.99981H23.4008C23.613 3.99981 23.8165 3.91552 23.9665 3.76549C24.1166 3.61546 24.2008 3.41198 24.2008 3.19981C24.2008 2.98763 24.1166 2.78415 23.9665 2.63412C23.8165 2.48409 23.613 2.39981 23.4008 2.39981H2.60085C2.38867 2.39981 2.18519 2.48409 2.03516 2.63412C1.88513 2.78415 1.80085 2.98763 1.80085 3.19981ZM5.80085 7.19981C5.58867 7.19981 5.38519 7.28409 5.23516 7.43412C5.08513 7.58415 5.00085 7.78763 5.00085 7.99981V12.7998C5.00085 13.012 5.08513 13.2155 5.23516 13.3655C5.38519 13.5155 5.58867 13.5998 5.80085 13.5998H20.2008C20.413 13.5998 20.6165 13.5155 20.7665 13.3655C20.9166 13.2155 21.0008 13.012 21.0008 12.7998V7.99981C21.0008 7.78763 20.9166 7.58415 20.7665 7.43412C20.6165 7.28409 20.413 7.19981 20.2008 7.19981H5.80085ZM15.4008 15.1998C15.1887 15.1998 14.9852 15.2841 14.8352 15.4341C14.6851 15.5842 14.6008 15.7876 14.6008 15.9998V19.1998C14.6008 19.412 14.6851 19.6155 14.8352 19.7655C14.9852 19.9155 15.1887 19.9998 15.4008 19.9998H20.2008C20.413 19.9998 20.6165 19.9155 20.7665 19.7655C20.9166 19.6155 21.0008 19.412 21.0008 19.1998V15.9998C21.0008 15.7876 20.9166 15.5842 20.7665 15.4341C20.6165 15.2841 20.413 15.1998 20.2008 15.1998H15.4008ZM6.60085 23.1998H11.4008V16.7998H6.60085V23.1998Z" fill="white"/>
</svg>
