<svg width="14" height="14" viewBox="0 0 14 14" fill="none" xmlns="http://www.w3.org/2000/svg">
<path d="M8.85156 12.9454C8.76143 13.1652 8.59785 13.3471 8.3887 13.4598C8.17955 13.5726 7.93777 13.6093 7.70456 13.5638C7.46843 13.519 7.25475 13.3947 7.09908 13.2115C6.94342 13.0284 6.85516 12.7974 6.84898 12.5571V6.91647H1.20842C0.973237 6.91011 0.747396 6.82304 0.568795 6.66988C0.390194 6.51671 0.269702 6.30677 0.227537 6.07528C0.185373 5.84379 0.224103 5.60484 0.337227 5.39853C0.450351 5.19222 0.630986 5.03109 0.84882 4.9422L12.1299 0.326251C12.3172 0.249397 12.5231 0.22972 12.7215 0.269703C12.92 0.309687 13.1022 0.40754 13.2451 0.550925C13.388 0.69431 13.4853 0.876809 13.5247 1.07541C13.5641 1.27401 13.5438 1.47983 13.4664 1.66691L8.85156 12.9454Z" fill="#666666"/>
</svg>
