<svg width="32" height="33" viewBox="0 0 32 33" fill="none" xmlns="http://www.w3.org/2000/svg">
<g clip-path="url(#clip0_464_4211)">
<path d="M5.82375 28.4469V26.854C5.82375 26.2433 5.43912 25.8452 4.77984 25.8452C4.45027 25.8452 4.09316 25.9514 3.84592 26.2965C3.65373 26.0044 3.37908 25.8452 2.96705 25.8452C2.69228 25.8452 2.41776 25.9247 2.19791 26.2168V25.8983H1.62109V28.4469H2.19791V27.0398C2.19791 26.5886 2.44516 26.3761 2.82979 26.3761C3.21417 26.3761 3.40661 26.6151 3.40661 27.0398V28.4469H3.98343V27.0398C3.98343 26.5886 4.25795 26.3761 4.61505 26.3761C4.99968 26.3761 5.19187 26.6151 5.19187 27.0398V28.4469H5.82375ZM14.3661 25.8983H13.4323V25.1284H12.8555V25.8983H12.3336V26.4026H12.8553V27.5708C12.8553 28.1549 13.1026 28.5 13.7618 28.5C14.0091 28.5 14.2836 28.4204 14.4761 28.3142L14.3111 27.8363C14.1464 27.9425 13.9542 27.9691 13.8168 27.9691C13.5421 27.9691 13.4323 27.8098 13.4323 27.5442V26.4026H14.3661V25.8983ZM19.2554 25.845C18.9258 25.845 18.7061 26.0044 18.5687 26.2168V25.8983H17.9919V28.4469H18.5687V27.0133C18.5687 26.5886 18.7609 26.3496 19.118 26.3496C19.2279 26.3496 19.3653 26.3762 19.4751 26.4027L19.6399 25.8718C19.5301 25.8452 19.3653 25.8452 19.2554 25.8452V25.845ZM11.8666 26.1106C11.5918 25.9247 11.2073 25.8452 10.7953 25.8452C10.1361 25.8452 9.6967 26.1637 9.6967 26.6681C9.6967 27.093 10.0263 27.3319 10.6031 27.4115L10.8777 27.4382C11.1799 27.4911 11.3447 27.5708 11.3447 27.7036C11.3447 27.8894 11.125 28.0222 10.7404 28.0222C10.3559 28.0222 10.0537 27.8894 9.86137 27.7567L9.58672 28.1814C9.88889 28.3938 10.3009 28.5 10.7128 28.5C11.482 28.5 11.9215 28.1549 11.9215 27.677C11.9215 27.2257 11.5644 26.9867 11.015 26.9071L10.7404 26.8805C10.4931 26.8539 10.3009 26.8009 10.3009 26.6417C10.3009 26.4558 10.4931 26.3496 10.7953 26.3496C11.125 26.3496 11.4546 26.4823 11.6194 26.562L11.8666 26.1106ZM27.1936 25.8452C26.8639 25.8452 26.6442 26.0044 26.5068 26.2168V25.8983H25.93V28.4469H26.5068V27.0133C26.5068 26.5886 26.6991 26.3496 27.0561 26.3496C27.1661 26.3496 27.3035 26.3762 27.4133 26.4027L27.5781 25.8718C27.4683 25.8452 27.3035 25.8452 27.1936 25.8452ZM19.8322 27.1726C19.8322 27.9425 20.3815 28.5 21.2331 28.5C21.6176 28.5 21.8923 28.4204 22.1669 28.208L21.8923 27.7567C21.6725 27.916 21.4528 27.9956 21.2056 27.9956C20.7386 27.9956 20.409 27.677 20.409 27.1726C20.409 26.6948 20.7386 26.3761 21.2056 26.3496C21.4528 26.3496 21.6725 26.4292 21.8923 26.5886L22.1669 26.1372C21.8923 25.9247 21.6176 25.8452 21.2331 25.8452C20.3815 25.8452 19.8322 26.4027 19.8322 27.1726ZM25.161 27.1726V25.8983H24.5842V26.2168C24.3919 25.978 24.1172 25.8452 23.7601 25.8452C23.0185 25.8452 22.4417 26.4027 22.4417 27.1726C22.4417 27.9425 23.0185 28.5 23.7601 28.5C24.1446 28.5 24.4194 28.3673 24.5842 28.1283V28.4469H25.161V27.1726ZM23.0459 27.1726C23.0459 26.7212 23.3481 26.3496 23.8424 26.3496C24.3094 26.3496 24.6391 26.6948 24.6391 27.1726C24.6391 27.6239 24.3094 27.9956 23.8424 27.9956C23.3481 27.9689 23.0459 27.6239 23.0459 27.1726ZM16.1516 25.8452C15.3824 25.8452 14.833 26.3761 14.833 27.1726C14.833 27.9691 15.3823 28.5 16.179 28.5C16.5635 28.5 16.9481 28.3938 17.2503 28.1549L16.9755 27.7567C16.7558 27.916 16.4812 28.0222 16.2065 28.0222C15.8494 28.0222 15.4923 27.8629 15.4099 27.4114H17.3602V27.1992C17.3877 26.3761 16.8933 25.8452 16.1516 25.8452ZM16.1516 26.323C16.5086 26.323 16.7559 26.5355 16.8107 26.9337H15.4374C15.4923 26.5886 15.7396 26.323 16.1516 26.323ZM30.4622 27.1726V24.8894H29.8854V26.2168C29.6931 25.978 29.4185 25.8452 29.0613 25.8452C28.3197 25.8452 27.7429 26.4027 27.7429 27.1726C27.7429 27.9425 28.3197 28.5 29.0613 28.5C29.446 28.5 29.7206 28.3673 29.8854 28.1283V28.4469H30.4622V27.1726ZM28.3473 27.1726C28.3473 26.7212 28.6493 26.3496 29.1438 26.3496C29.6108 26.3496 29.9403 26.6948 29.9403 27.1726C29.9403 27.6239 29.6108 27.9956 29.1438 27.9956C28.6493 27.9689 28.3473 27.6239 28.3473 27.1726ZM9.06483 27.1726V25.8983H8.48801V26.2168C8.29569 25.978 8.02105 25.8452 7.66394 25.8452C6.92234 25.8452 6.34551 26.4027 6.34551 27.1726C6.34551 27.9425 6.92234 28.5 7.66394 28.5C8.04857 28.5 8.32322 28.3673 8.48801 28.1283V28.4469H9.06483V27.1726ZM6.92234 27.1726C6.92234 26.7212 7.22451 26.3496 7.71887 26.3496C8.18583 26.3496 8.51554 26.6948 8.51554 27.1726C8.51554 27.6239 8.18583 27.9956 7.71887 27.9956C7.22451 27.9689 6.92234 27.6239 6.92234 27.1726Z" fill="#00100A"/>
<path d="M11.6719 6.54468H20.3242V21.5712H11.6719V6.54468Z" fill="#FF5F00"/>
<path d="M12.2232 14.0575C12.2232 11.0045 13.7064 8.29646 15.9862 6.5442C14.3108 5.26989 12.1958 4.5 9.88853 4.5C4.42225 4.5 0 8.77428 0 14.0575C0 19.3407 4.42225 23.6151 9.8884 23.6151C12.1957 23.6151 14.3106 22.8452 15.9862 21.5708C13.7064 19.8451 12.2232 17.1106 12.2232 14.0575Z" fill="#EB001B"/>
<path d="M32.0018 14.0575C32.0018 19.3407 27.5796 23.6151 22.1134 23.6151C19.8061 23.6151 17.6912 22.8452 16.0156 21.5708C18.3229 19.8186 19.7787 17.1106 19.7787 14.0575C19.7787 11.0045 18.2954 8.29646 16.0156 6.5442C17.691 5.26989 19.8061 4.5 22.1134 4.5C27.5796 4.5 32.0018 8.80089 32.0018 14.0575Z" fill="#F79E1B"/>
</g>
<defs>
<clipPath id="clip0_464_4211">
<rect width="32" height="32" fill="white" transform="translate(0 0.5)"/>
</clipPath>
</defs>
</svg>
