<svg width="28" height="20" viewBox="0 0 28 20" fill="none" xmlns="http://www.w3.org/2000/svg">
<path fill-rule="evenodd" clip-rule="evenodd" d="M19.2398 12.667H24.2296C25.0526 12.667 25.8419 12.3158 26.4238 11.6907C27.0057 11.0656 27.3327 10.2177 27.3327 9.33366C27.3327 8.4496 27.0057 7.60176 26.4238 6.97664C25.8419 6.35152 25.0526 6.00033 24.2296 6.00033H6.99869C6.76824 6.00019 6.54237 5.93115 6.34638 5.80092C6.1504 5.6707 5.99203 5.48443 5.88902 5.26299L5.33294 4.07099C5.22993 3.84955 5.07156 3.66329 4.87558 3.53306C4.67959 3.40284 4.45372 3.33379 4.22327 3.33366H1.90836C1.70285 3.33346 1.50052 3.38808 1.31951 3.49261C1.1385 3.59714 0.98449 3.74831 0.871292 3.93256C0.758094 4.1168 0.689253 4.32836 0.670949 4.54823C0.652645 4.76811 0.68545 4.98943 0.76642 5.19233L3.4264 11.859C3.52217 12.099 3.68144 12.3035 3.88445 12.4471C4.08745 12.5908 4.32525 12.6672 4.56834 12.667H9.36325C9.56598 12.6671 9.7656 12.7206 9.94464 12.8228C10.1237 12.9249 10.2767 13.0726 10.3904 13.2529C10.504 13.4333 10.5748 13.6408 10.5965 13.8573C10.6183 14.0738 10.5903 14.2928 10.5151 14.495L9.39676 17.507C9.32185 17.7091 9.29408 17.9277 9.3159 18.144C9.33771 18.3602 9.40843 18.5674 9.52189 18.7475C9.63536 18.9277 9.78813 19.0753 9.96688 19.1774C10.1456 19.2796 10.3449 19.3332 10.5474 19.3337H13.082C13.2681 19.3337 13.4519 19.2888 13.6197 19.2023C13.7875 19.1157 13.9351 18.9897 14.0514 18.8337L18.2716 13.167C18.3878 13.0111 18.5352 12.8852 18.7027 12.7987C18.8703 12.7121 19.0539 12.6671 19.2398 12.667ZM10.5759 4.66699H16.4718L14.0514 1.20033C13.9358 1.03473 13.7859 0.900326 13.6135 0.807756C13.4412 0.715186 13.2511 0.666992 13.0584 0.666992H10.7224C10.5109 0.667113 10.3029 0.725284 10.1183 0.835985C9.93357 0.946685 9.77827 1.10624 9.66711 1.29952C9.55595 1.49279 9.4926 1.71338 9.48309 1.94033C9.47357 2.16729 9.5182 2.3931 9.61274 2.59633L10.5759 4.66699Z" fill="white"/>
</svg>
