<svg width="364" height="364" viewBox="0 0 364 364" fill="none" xmlns="http://www.w3.org/2000/svg">
<path d="M257.815 140.075C281.787 157.226 314.116 174.422 318.155 192.14C322.192 209.904 297.898 228.125 276.286 247.063C254.608 266.034 235.628 285.627 211.988 287.994C188.405 290.375 160.769 279.633 134.043 264.155C107.317 248.677 68.4406 253.834 53.205 231.622C37.9607 209.459 45.754 155.786 52.7294 129.372C59.7157 102.91 78.9944 78.3348 106.041 71.935C133.096 65.4884 167.876 73.4456 193.099 87.8373C218.282 102.168 233.893 122.983 257.815 140.075Z" fill="#010101"/>
<path d="M101.953 265.156C98.511 265.156 95.2099 263.66 92.7759 260.998C90.342 258.336 88.9746 254.725 88.9746 250.96V150.301C88.9746 146.536 90.342 142.925 92.7759 140.263C95.2099 137.601 98.511 136.105 101.953 136.105H110.219C110.637 130.332 111.789 124.65 113.641 119.224C114.788 115.87 116.21 112.637 117.888 109.562C119.521 106.575 121.404 103.759 123.512 101.152C125.573 98.5991 127.856 96.2709 130.329 94.1999C132.765 92.1626 135.386 90.4051 138.151 88.9553C143.744 86.0128 149.87 84.4849 156.076 84.4849C162.281 84.4849 168.408 86.0128 174 88.9553C176.765 90.4051 179.386 92.1626 181.821 94.1999C184.294 96.27 186.577 98.5983 188.637 101.152C190.745 103.762 192.628 106.579 194.261 109.569C195.939 112.643 197.361 115.877 198.508 119.231C200.361 124.656 201.512 130.338 201.93 136.112H209.32C212.763 136.112 216.064 137.607 218.498 140.269C220.932 142.932 222.299 146.542 222.299 150.307V250.967C222.299 254.732 220.932 258.342 218.498 261.005C216.064 263.667 212.763 265.162 209.32 265.162L101.953 265.156ZM188.17 136.105C187.81 132.359 187.042 128.673 185.881 125.127C184.32 120.285 181.972 115.792 178.95 111.863C176.113 108.15 172.615 105.108 168.667 102.924C164.762 100.769 160.449 99.6462 156.076 99.6462C151.702 99.6462 147.389 100.769 143.484 102.924C139.536 105.108 136.037 108.149 133.201 111.863C130.179 115.79 127.831 120.282 126.269 125.122C125.108 128.668 124.34 132.353 123.98 136.099L188.17 136.105Z" fill="#D4B57C"/>
<path d="M150.327 213.536V201.831C148.527 200.695 147.121 198.941 146.326 196.841C145.531 194.741 145.391 192.413 145.929 190.218C146.467 188.023 147.652 186.083 149.3 184.699C150.949 183.316 152.968 182.566 155.046 182.566C157.124 182.566 159.144 183.316 160.792 184.699C162.441 186.083 163.626 188.023 164.164 190.218C164.701 192.413 164.562 194.741 163.767 196.841C162.972 198.941 161.565 200.695 159.766 201.831V213.536C159.766 214.905 159.269 216.218 158.383 217.186C157.498 218.154 156.298 218.698 155.046 218.698C153.795 218.698 152.594 218.154 151.709 217.186C150.824 216.218 150.327 214.905 150.327 213.536Z" fill="white"/>
<path d="M221.119 181.421C242.297 181.421 259.464 163.221 259.464 140.77C259.464 118.319 242.297 100.119 221.119 100.119C199.941 100.119 182.773 118.319 182.773 140.77C182.773 163.221 199.941 181.421 221.119 181.421Z" fill="#3F7A64"/>
<path fill-rule="evenodd" clip-rule="evenodd" d="M242.897 120.273C243.23 120.559 243.508 120.914 243.715 121.318C243.922 121.722 244.054 122.166 244.104 122.626C244.154 123.086 244.121 123.552 244.007 123.997C243.892 124.443 243.698 124.859 243.436 125.223L243.4 125.274L219.838 156.816C219.499 157.272 219.066 157.634 218.575 157.873C218.084 158.112 217.549 158.221 217.012 158.192C216.468 158.227 215.924 158.131 215.418 157.911C214.912 157.69 214.457 157.35 214.085 156.915L202.522 143.414C202.235 143.078 202.01 142.684 201.862 142.253C201.714 141.823 201.644 141.364 201.658 140.904C201.672 140.444 201.768 139.992 201.942 139.573C202.115 139.153 202.363 138.776 202.67 138.461C202.709 138.421 202.748 138.382 202.788 138.344C203.481 137.703 204.374 137.379 205.28 137.437C206.186 137.496 207.037 137.933 207.657 138.659L216.459 148.983L238.2 120.795C238.768 120.059 239.576 119.593 240.452 119.496C241.328 119.398 242.205 119.677 242.897 120.273Z" fill="white"/>
</svg>
