<svg width="364" height="364" viewBox="0 0 364 364" fill="none" xmlns="http://www.w3.org/2000/svg">
<path d="M256.406 108.508C285.917 123.651 324.564 136.618 332.421 157.795C340.278 179.032 317.281 208.41 297.352 237.971C277.358 267.595 260.431 297.274 235.071 306.562C209.775 315.852 176.048 304.691 143.854 292.385C111.66 280.079 80.9963 266.688 60.0454 242.853C39.0985 219.083 27.8503 184.878 30.342 149.828C32.8336 114.72 49.1222 78.7009 77.4206 63.4379C105.719 48.1147 146.09 53.544 176.431 64.8864C206.709 76.1722 226.959 93.4264 256.406 108.508Z" fill="#98D7B3"/>
<path d="M107.985 257.9C104.193 257.9 100.556 256.477 97.8751 253.945C95.1938 251.413 93.6875 247.978 93.6875 244.397V148.65C93.6875 145.069 95.1938 141.634 97.8751 139.102C100.556 136.57 104.193 135.147 107.985 135.147H117.091C117.551 129.655 118.82 124.251 120.86 119.09C122.124 115.9 123.69 112.824 125.539 109.899C127.338 107.058 129.412 104.38 131.734 101.899C134.005 99.4713 136.52 97.2567 139.244 95.2868C141.928 93.3489 144.815 91.6772 147.862 90.2981C154.022 87.4992 160.771 86.0459 167.608 86.0459C174.444 86.0459 181.193 87.4992 187.353 90.2981C190.399 91.6772 193.287 93.3489 195.97 95.2868C198.694 97.2559 201.208 99.4706 203.478 101.899C205.801 104.382 207.874 107.062 209.673 109.905C211.522 112.83 213.088 115.906 214.352 119.096C216.393 124.257 217.662 129.661 218.121 135.153H226.263C230.055 135.153 233.692 136.576 236.373 139.108C239.054 141.64 240.561 145.075 240.561 148.656V244.403C240.561 247.984 239.054 251.419 236.373 253.951C233.692 256.483 230.055 257.906 226.263 257.906L107.985 257.9ZM202.964 135.147C202.567 131.584 201.721 128.078 200.442 124.704C198.722 120.099 196.135 115.825 192.806 112.088C189.682 108.556 185.827 105.662 181.479 103.585C177.177 101.535 172.426 100.467 167.608 100.467C162.789 100.467 158.038 101.535 153.736 103.585C149.387 105.662 145.532 108.555 142.408 112.088C139.08 115.824 136.493 120.096 134.772 124.7C133.493 128.073 132.647 131.578 132.25 135.141L202.964 135.147Z" fill="#010101"/>
<path d="M161.275 208.799V197.666C159.293 196.585 157.744 194.916 156.868 192.919C155.992 190.922 155.838 188.707 156.43 186.619C157.023 184.531 158.328 182.686 160.144 181.37C161.96 180.054 164.185 179.341 166.474 179.341C168.763 179.341 170.988 180.054 172.804 181.37C174.62 182.686 175.926 184.531 176.518 186.619C177.11 188.707 176.957 190.922 176.081 192.919C175.205 194.916 173.656 196.585 171.673 197.666V208.799C171.673 210.102 171.126 211.35 170.151 212.271C169.176 213.192 167.853 213.709 166.474 213.709C165.095 213.709 163.773 213.192 162.798 212.271C161.823 211.35 161.275 210.102 161.275 208.799Z" fill="white"/>
<path d="M182.073 239.658V226.577C182.071 225.65 182.35 224.741 182.877 223.958C182.392 223.26 182.115 222.451 182.077 221.617C182.039 220.783 182.24 219.955 182.66 219.22C183.079 218.485 183.702 217.871 184.461 217.443C185.22 217.015 186.087 216.789 186.971 216.789H261.903C263.205 209.65 267.306 203.236 273.388 198.822C279.471 194.409 287.09 192.32 294.73 192.971C302.369 193.623 309.469 196.966 314.617 202.337C319.765 207.708 322.583 214.712 322.51 221.956C322.438 229.2 319.481 236.152 314.227 241.431C308.973 246.709 301.808 249.926 294.157 250.441C286.506 250.956 278.929 248.732 272.936 244.211C266.942 239.691 262.97 233.204 261.81 226.043H211.38C211.4 226.221 211.41 226.4 211.409 226.579V232.584C211.42 233.232 211.294 233.877 211.039 234.479C210.784 235.081 210.404 235.629 209.922 236.092C209.44 236.554 208.866 236.921 208.232 237.172C207.599 237.423 206.919 237.552 206.232 237.552C205.545 237.552 204.865 237.423 204.231 237.172C203.598 236.921 203.023 236.554 202.541 236.092C202.06 235.629 201.68 235.081 201.425 234.479C201.169 233.877 201.043 233.232 201.054 232.584V226.577C201.054 226.399 201.064 226.22 201.084 226.042H192.394C192.414 226.22 192.424 226.399 192.424 226.577V239.658C192.424 240.955 191.878 242.199 190.907 243.116C189.936 244.033 188.619 244.548 187.246 244.548C185.872 244.548 184.555 244.033 183.584 243.116C182.613 242.199 182.067 240.955 182.067 239.658H182.073ZM308.639 221.688C308.636 218.04 307.294 214.506 304.841 211.688C302.388 208.869 298.977 206.941 295.188 206.232C291.399 205.523 287.466 206.076 284.061 207.798C280.655 209.52 277.987 212.303 276.511 215.674C275.035 219.046 274.842 222.796 275.965 226.287C277.088 229.777 279.458 232.792 282.671 234.817C285.883 236.843 289.74 237.754 293.584 237.395C297.428 237.036 301.022 235.429 303.752 232.849C305.303 231.383 306.533 229.643 307.372 227.728C308.211 225.813 308.641 223.76 308.639 221.688Z" fill="#D4B57C"/>
<path d="M182.072 239.657V233.52H183.372V239.657H182.072ZM182.072 227.382V226.577C182.071 225.649 182.35 224.74 182.877 223.957V223.935C182.715 223.694 182.577 223.439 182.465 223.173V223.14L182.447 223.094V223.018V223.009V222.935C182.292 222.499 182.207 222.044 182.194 221.585L183.494 221.553C183.511 222.185 183.715 222.8 184.083 223.328L184.546 223.991L184.095 224.661C183.7 225.248 183.491 225.929 183.493 226.625V227.43L182.072 227.382ZM185.661 216.957C185.865 216.903 186.073 216.862 186.282 216.834H186.293H186.302H186.311H186.32H186.328H186.336H186.364H186.621H186.636H186.65H186.664H186.679H186.693H186.707H186.722H186.736H186.751H186.766H186.772H186.779H186.785H186.792H186.798H186.805H186.881H186.888H186.894H186.901H186.907H186.914H186.92C186.92 216.834 186.92 216.834 186.927 216.834H192.109V218.062H186.936C186.611 218.061 186.287 218.103 185.974 218.184L185.661 216.957ZM198.643 218.016V216.789H205.142V218.016H198.643ZM211.641 218.016V216.789H218.139V218.016H211.641ZM224.638 218.016V216.789H231.137V218.016H224.638ZM237.636 218.016V216.789H244.135V218.016H237.636ZM250.633 218.016V216.789H257.132V218.016H250.633ZM262.242 215.193C262.463 214.288 262.729 213.397 263.041 212.519L263.073 212.427L263.093 212.372L263.106 212.336V212.319L263.119 212.285V212.268V212.25V212.233V212.217V212.201V212.185V212.169V212.155V212.139V212.124V212.108V212.093V212.08V212.065V212.05V212.037V212.022V212.009V211.995V211.98V211.968V211.953V211.94V211.934V211.924V211.91V211.904V211.893V211.885V211.875V211.867V211.855V211.848V211.839V211.828V211.82V211.811V211.802V211.791V211.785V211.772V211.766V211.756V211.741L263.127 211.723V211.713V211.697V211.687L263.135 211.669L263.142 211.65V211.639L263.15 211.618L263.163 211.586L263.171 211.567L263.184 211.535L263.206 211.48C263.475 210.82 263.768 210.171 264.086 209.533L265.256 210.056C264.371 211.829 263.69 213.687 263.223 215.597L261.957 215.321L262.242 215.193ZM267.734 204.17C268.547 203.163 269.429 202.208 270.374 201.311L270.388 201.297L270.447 201.242L270.456 201.227L270.47 201.214L270.528 201.16L270.541 201.147L270.596 201.096L270.608 201.085L270.639 201.065L270.678 201.028L270.69 201.019L270.716 200.994L270.726 200.984L270.75 200.963L270.769 200.942L270.776 200.936L270.785 200.928L270.793 200.92L270.802 200.912L270.81 200.904L270.819 200.896L270.828 200.887L270.841 200.875L270.846 200.868L270.854 200.86L270.863 200.852L270.871 200.844L270.88 200.836L270.888 200.828L270.904 200.82L270.92 200.805L270.93 200.795H270.937L270.947 200.785H270.954L270.976 200.752L271.01 200.722L271.023 200.71L271.036 200.699L271.053 200.685L271.071 200.669L271.106 200.634L271.12 200.622L271.137 200.607L271.174 200.575L271.19 200.56L271.207 200.545C271.524 200.267 271.848 199.994 272.178 199.727L273.022 200.661C271.449 201.932 270.022 203.356 268.766 204.91L267.733 204.165L267.734 204.17ZM277.548 196.261C277.676 196.195 277.806 196.131 277.937 196.068L277.988 196.032H278.006L278.043 196.015L278.06 196.007L278.095 195.989L278.112 195.982L278.129 195.975L278.147 195.966L278.164 195.958L278.178 195.95L278.212 195.934L278.243 195.91H278.262L278.279 195.901L278.294 195.894L278.307 195.888L278.324 195.879L278.338 195.872H278.351L278.368 195.864L278.385 195.857H278.396L278.409 195.851L278.426 195.843H278.438H278.45L278.515 195.787H278.528H278.539L278.554 195.781L278.57 195.773H278.582H278.594L278.645 195.724H278.656H278.668L278.685 195.717L278.699 195.711H278.711H278.724L278.775 195.664H278.786H278.798L278.814 195.657H278.825H278.837L278.892 195.615H278.905H278.915H278.928L278.943 195.608H278.955H278.967L278.984 195.6H278.997H279.008L279.024 195.593L279.038 195.587H279.05H279.063L279.08 195.579H279.092H279.103L279.12 195.572H279.135H279.148L279.181 195.557H279.194L279.209 195.551L279.339 195.419H279.352H279.365L279.382 195.411L279.397 195.405H279.41L279.445 195.39H279.46L279.475 195.383L279.493 195.376L279.509 195.37L279.523 195.363L279.558 195.349L279.619 195.296L279.656 195.281L279.671 195.275L279.688 195.268L279.706 195.26L279.723 195.253L279.739 195.247L279.775 195.232L279.814 195.22L279.851 195.205L279.868 195.198L279.924 195.173L279.944 195.166L279.982 195.151L280 195.144L280.056 195.122L280.112 195.099L280.169 195.077L280.187 195.07L280.245 195.048L280.302 195.026L280.378 194.996L280.436 194.974L280.493 194.952L280.623 194.901L280.68 194.879L280.698 194.871L280.755 194.85L280.813 194.829L280.879 194.805L280.897 194.799L280.935 194.785L280.953 194.779L280.971 194.773L281.009 194.759H281.026L281.063 194.746H281.079L281.115 194.732H281.131H281.145L281.163 194.726H281.179H281.192L281.244 194.67L281.262 194.664H281.27H281.28H281.291H281.3H281.31H281.318H281.33H281.343H281.357C282.05 194.418 282.748 194.201 283.45 194.012H283.467H283.484L283.556 193.946L283.915 195.125C283.173 195.327 282.428 195.559 281.705 195.816C280.49 196.248 279.307 196.756 278.164 197.337L277.548 196.256V196.261ZM289.952 192.902C290.337 192.878 290.723 192.862 291.111 192.852H291.22H291.915C291.915 192.852 291.926 192.852 291.931 192.852H291.955V192.841H291.983C291.983 192.841 291.993 192.841 292 192.841C292.006 192.841 292.014 192.841 292.022 192.841H292.215H295.305H295.323H295.365H295.384H295.436H295.454H295.502H295.523H295.553H295.593H295.622H295.643H295.691H295.714H295.759H295.785H295.81H295.852H295.881H295.903H295.948H295.973H296.017H296.042H296.068H296.111H296.137H296.163H296.206H296.232H296.273H296.301H296.325H296.369H296.395H296.423L296.234 194.055C294.809 193.962 293.379 193.966 291.955 194.068C291.315 194.068 290.667 194.088 290.032 194.127L289.952 192.902ZM302.248 195.834L302.708 194.682L302.792 194.712H302.798H302.808H302.82H302.827L302.869 194.728C303.173 194.838 303.476 194.953 303.779 195.072L303.798 195.08L303.818 195.088L303.839 195.097H303.853H303.861H303.873H303.881H303.892H303.902H303.913H303.921H303.933H303.941H303.954H303.961H303.976L304.016 195.114L304.031 195.12H304.044H304.052H304.065H304.073H304.086H304.093H304.106H304.112H304.125H304.133H304.147L304.189 195.138L304.25 195.28L304.265 195.286L304.288 195.296H304.302H304.308H304.323H304.329H304.343L304.36 195.303L304.423 195.329L304.44 195.336L304.455 195.343L304.47 195.349L304.485 195.355L304.501 195.362L304.562 195.419L304.624 195.446L304.644 195.454L304.661 195.462L304.677 195.469L304.694 195.476L304.713 195.485L304.817 195.53L304.835 195.539L304.853 195.548L304.871 195.556L304.891 195.565L305.036 195.63L305.056 195.638C306.104 196.111 307.123 196.641 308.108 197.224L308.126 197.235L308.143 197.245L308.16 197.255L308.178 197.266L308.254 197.311L308.271 197.323L308.286 197.331L308.299 197.34L308.312 197.347L308.325 197.354L308.338 197.363L308.354 197.373L308.374 197.384L308.391 197.394L308.404 197.401H308.41H308.418L307.711 198.431C306.291 197.563 304.794 196.814 303.237 196.191C302.964 196.097 302.604 195.961 302.248 195.834ZM312.614 202.17L313.535 201.311C314.142 201.884 314.716 202.475 315.259 203.085L315.389 203.232L315.404 203.249L315.419 203.266L315.433 203.283L315.449 203.301L315.545 203.411L315.559 203.427L315.572 203.443L315.585 203.459L315.599 203.476L315.663 203.55L315.688 203.579L315.701 203.594L315.712 203.607L315.724 203.621L315.736 203.636L315.749 203.65L315.763 203.668L315.794 203.704L315.809 203.722L315.852 203.766L315.863 203.779L315.874 203.792L315.884 203.804L315.894 203.817L315.906 203.831L315.948 203.879L315.979 203.916L315.991 203.93L316.001 203.943V203.949L316.01 203.961V203.968L316.019 203.979V203.987L316.053 204.011V204.019L316.062 204.03V204.036L316.072 204.048V204.054L316.084 204.069L316.098 204.087L316.11 204.101V204.107L316.119 204.118V204.125L316.127 204.135L316.134 204.144L316.141 204.154L316.148 204.162L316.156 204.172L316.162 204.181L316.208 204.195V204.204L316.215 204.213L316.223 204.221L316.231 204.231L316.238 204.24L316.252 204.257L316.261 204.268L316.271 204.28L316.279 204.289L316.287 204.299L316.293 204.307L316.301 204.317L316.309 204.326L316.317 204.334L316.325 204.344L316.331 204.353L316.338 204.359V204.367L316.352 204.38H316.358L316.366 204.389L316.373 204.398L316.381 204.408L316.387 204.416L316.395 204.426V204.434L316.41 204.454V204.462L316.42 204.473V204.48L316.446 204.502V204.51L316.453 204.521V204.528L316.461 204.538V204.545L316.469 204.556V204.564L316.477 204.575V204.582L316.486 204.593V204.601L316.495 204.612L316.531 204.658L316.542 204.672L316.551 204.684L316.56 204.696L316.569 204.709V204.715L316.578 204.727L316.587 204.739L316.598 204.753L316.728 204.871L316.738 204.884L316.748 204.898L316.759 204.911L316.769 204.925L316.78 204.939L316.856 205.042L316.868 205.058L316.88 205.074L316.919 205.116L316.93 205.132L316.942 205.148L317.02 205.254L317.032 205.27L317.043 205.285L317.055 205.301L317.067 205.319L317.169 205.461L317.182 205.478L317.195 205.495C317.331 205.684 317.464 205.874 317.594 206.065L316.501 206.729C315.379 205.084 314.076 203.556 312.614 202.17ZM319.296 211.99L320.512 211.559C320.599 211.784 320.686 212.011 320.772 212.238L320.78 212.259V212.275V212.282V212.297V212.304V212.319V212.327V212.34V212.349V212.358V212.371V212.379V212.393V212.401V212.415V212.422V212.437V212.443V212.458V212.464V212.478V212.485V212.5V212.516V212.533V212.55V212.567L320.787 212.586L320.793 212.605L320.801 212.626L320.809 212.647L320.815 212.667L320.822 212.687L320.83 212.708C321.314 213.996 321.701 215.315 321.985 216.655L322.005 216.764V216.784V216.803V216.822V216.84V216.859V216.876V216.892V216.908V216.924V216.931V216.946V216.954V216.968V216.976V216.989V217.008V217.022V217.03V217.045V217.051V217.069V217.088L322.062 217.443L320.775 217.62C320.494 215.699 319.998 213.812 319.296 211.99ZM320.024 229.312C320.594 227.425 320.949 225.487 321.083 223.529L322.383 223.609C322.328 224.394 322.242 225.172 322.123 225.941V225.963V225.984V226.006L322.093 226.107V226.128V226.149V226.169V226.19V226.211L322.085 226.254V226.275V226.296V226.315V226.335V226.355V226.374V226.394V226.415V226.435V226.454V226.473V226.491V226.509V226.528V226.546V226.565V226.583V226.601V226.62V226.637V226.654V226.671V226.689V226.705V226.722V226.739V226.755V226.771V226.777V226.793V226.799V226.814V226.821V226.836V226.842V226.857V226.873V226.879V226.895V226.901V226.917V226.923V226.939V226.946V226.961V226.969V226.982V226.991V227.003V227.011V227.025V227.032V227.047V227.054V227.07V227.078V227.092V227.212V227.226V227.234V227.248V227.257V227.269V227.279V227.291V227.301V227.313V227.322V227.336V227.343V227.358V227.365V227.38V227.387V227.402V227.409V227.423V227.431V227.444V227.453V227.466V227.475V227.488V227.496V227.51V227.517V227.532V227.539V227.554V227.561V227.576V227.584V227.598V227.606V227.618V227.628V227.64V227.649V227.661V227.668V227.683V227.69V227.705V227.712V227.727V227.734V227.75V227.758V227.774V227.78V227.795V227.802V227.817V227.825V227.84V227.856V227.862V227.878V227.894V227.911V227.928V227.946V227.963V227.98V227.997V228.014V228.032V228.049V228.067V228.087V228.108L321.667 228.194V228.213V228.233V228.253V228.272V228.292L321.645 228.378V228.399C321.541 228.808 321.427 229.217 321.303 229.626L320.024 229.312ZM314.189 239.591C315.535 238.099 316.708 236.475 317.688 234.747L318.834 235.327V235.334L318.825 235.351L318.762 235.463L318.753 235.479L318.743 235.495L318.734 235.511L318.725 235.527L318.715 235.544L318.66 235.639L318.65 235.656L318.641 235.672L318.632 235.688L318.623 235.704L318.614 235.72L318.549 235.83L318.539 235.846L318.53 235.862L318.521 235.878L318.511 235.894L318.445 236.004L318.434 236.02L318.425 236.036L318.416 236.051L318.407 236.067L318.396 236.084L318.339 236.176L318.329 236.192L318.32 236.208L318.311 236.224L318.302 236.24L318.291 236.256L318.224 236.364L318.213 236.38L318.204 236.395L318.195 236.409L318.186 236.424L318.175 236.44L318.118 236.53L318.108 236.546L318.027 236.664L318.018 236.678L318.009 236.693L317.999 236.709L317.94 236.799L317.93 236.815L317.921 236.829L317.912 236.844L317.903 236.859L317.892 236.873L317.882 236.889L317.835 236.961L317.825 236.977L317.783 237.032L317.774 237.047L317.765 237.061L317.756 237.076L317.745 237.092L317.687 237.179L317.678 237.194L317.669 237.207L317.659 237.221L317.65 237.234L317.64 237.249L317.58 237.336L317.57 237.351L317.561 237.364L317.552 237.378L317.543 237.391L317.533 237.405L317.523 237.42L317.475 237.488L317.465 237.503L317.455 237.517L317.446 237.53L317.437 237.544L317.428 237.557L317.419 237.571L317.409 237.585L317.372 237.637L317.362 237.65L317.353 237.663L317.344 237.675V237.682L317.335 237.695V237.701L317.325 237.713V237.719L317.316 237.731L317.307 237.745L317.262 237.809L317.253 237.822L317.244 237.835V237.841L317.234 237.853V237.859L317.227 237.87V237.878L317.218 237.89V237.896L317.208 237.908V237.914L317.199 237.927L317.167 237.972L317.158 237.984V237.99L317.15 238.002V238.009L317.142 238.02V238.027L317.134 238.038V238.046L317.127 238.057V238.064L317.119 238.075V238.083L317.111 238.094L317.08 238.137V238.143L317.072 238.154V238.161L317.064 238.171V238.18L317.056 238.189V238.198L317.049 238.208L317.042 238.216L317.034 238.226V238.235L317.026 238.245L317.02 238.253L317.012 238.263V238.272L317.004 238.281L316.998 238.29L316.984 238.31V238.317L316.976 238.328V238.335L316.968 238.345L316.728 238.505L316.721 238.515L316.715 238.523L316.707 238.533L316.7 238.542L316.692 238.551V238.56L316.685 238.57L316.678 238.578L316.67 238.588L316.663 238.598L316.656 238.607L316.647 238.618V238.625L316.633 238.644V238.65L316.624 238.662V238.669L316.616 238.68V238.689L316.608 238.699V238.707L316.6 238.717L316.594 238.726L316.586 238.736V238.744L316.578 238.755V238.763L316.569 238.775V238.781L316.559 238.795L316.53 238.831L316.52 238.845V238.851L316.51 238.863V238.871L316.501 238.882V238.889L316.492 238.901V238.907L316.482 238.92L316.471 238.932L316.46 238.945L316.43 238.982L316.418 238.997L316.408 239.009L316.397 239.022V239.028L316.388 239.04V239.046L316.379 239.058V239.065L316.369 239.077L316.357 239.092L316.343 239.11L316.313 239.148L316.3 239.164L316.288 239.177L316.278 239.191L316.267 239.205L316.256 239.218L316.244 239.233L316.23 239.25L316.183 239.306L316.17 239.322L316.158 239.337L316.147 239.352L316.134 239.367L315.948 239.487L315.87 239.58L315.855 239.597L315.841 239.613L315.828 239.629L315.814 239.646L315.719 239.758L315.705 239.775L315.69 239.792L315.675 239.811C315.514 239.997 315.352 240.182 315.187 240.366L314.189 239.591ZM304.386 246.689C306.263 245.853 308.04 244.829 309.687 243.636L310.478 244.609C310.156 244.843 309.829 245.071 309.497 245.292L309.332 245.401L309.312 245.415L309.292 245.428L309.162 245.509L309.142 245.521L309.123 245.534L309.104 245.546L309.085 245.558L308.981 245.624L308.961 245.637L308.943 245.648L308.926 245.659L308.909 245.67L308.891 245.682L308.808 245.735L308.791 245.746L308.776 245.756L308.76 245.766L308.744 245.775L308.728 245.785L308.709 245.796L308.668 245.822L308.647 245.834L308.631 245.844L308.617 245.853L308.603 245.861H308.596L308.583 245.87H308.577L308.564 245.879H308.556L308.543 245.887H308.536L308.521 245.897L308.5 245.909L308.482 245.92H308.475L308.462 245.929H308.455L308.442 245.936H308.434L308.422 245.944H308.413L308.401 245.951H308.392L308.38 245.957H308.371L308.36 245.964H308.351L308.339 245.972H308.33L308.317 245.979L308.301 245.989L308.29 245.996L308.279 246.003H308.269L308.257 246.009H308.248L308.236 246.016H308.227L308.215 246.023H308.206L308.195 246.03H308.186L308.174 246.037H308.166L308.154 246.044H308.147L308.134 246.052H308.127L308.079 246.08L308.066 246.087H308.059L308.046 246.095H308.04L308.027 246.102H308.019L308.006 246.109H307.998L307.985 246.117H307.979L307.965 246.125L307.949 246.134L307.876 246.176L307.861 246.184L307.846 246.193L307.832 246.201L307.816 246.21L307.801 246.219L307.784 246.228L307.688 246.282L307.671 246.292L307.654 246.302L307.637 246.312L307.619 246.322L307.482 246.398L307.463 246.409L307.443 246.42C306.673 246.845 305.882 247.238 305.071 247.6L304.386 246.689ZM292.356 249.307C294.431 249.282 296.498 249.048 298.522 248.61L298.814 249.805H298.795H298.777H298.758H298.739H298.719H298.701H298.683H298.663H298.644H298.624H298.605H298.585H298.566H298.548H298.53H298.51H298.491H298.472H298.454H298.436H298.418H298.4H298.381H298.363H298.345H298.327H298.31H298.292H298.274H298.255H298.238H298.22H298.202H298.185H298.17H298.163H298.147H298.131H298.124H298.107H298.101H298.084H298.077H298.06H297.881H297.864H297.849H297.841H297.825H297.819H297.803H297.786H297.78H297.763H297.756H297.739H297.733H297.716H297.708H297.691H297.685H297.67H297.661H297.647H297.621H297.605H297.598H297.582H297.574H297.557H297.55H297.534H297.526H297.509H297.501H297.486H297.478H297.465H297.455H297.442H297.431H297.418H297.409H297.395H297.386H297.37H297.361H297.346H297.336H297.321H297.312H297.297H297.287H297.275H297.264H297.253H297.242H297.23H297.218H297.209H297.195H297.186H297.171H297.162H297.148H297.139H297.127H297.115H297.101H297.087H297.078H297.062H297.054H297.039H297.031H297.015H297.008H296.992H296.965H296.948H296.94H296.923H296.917H296.898H296.88H296.862H296.844H296.823H296.787H296.766H296.745H296.724H296.705H296.684H296.662L296.599 249.814H296.575H296.551H296.528H296.505L296.393 249.83H296.369H296.345C295.267 249.974 294.183 250.064 293.095 250.099H293.046H293.021H292.445L292.356 249.307ZM279.729 248.125L280.248 247.001C280.683 247.181 281.128 247.353 281.573 247.512C283.065 248.05 284.602 248.47 286.168 248.768L285.908 249.971C285.791 249.949 285.674 249.926 285.557 249.902H285.538H285.52H285.502H285.483L285.42 249.89H285.403H285.389H285.383H285.37H285.362H285.349H285.341H285.329H285.321H285.31H285.301H285.289H285.28H285.269H285.241H285.228H285.22H285.207H285.199H285.186H285.18H285.167H285.143H285.13H285.116H285.102H285.085L284.99 249.869H284.972H284.954H284.935C283.884 249.636 282.846 249.349 281.826 249.01H281.808H281.791H281.773L281.643 248.967H281.628H281.613H281.599H281.585H281.57L281.501 248.944H281.487H281.474H281.461H281.455H281.443H281.436H281.425H281.417H281.405H281.399H281.387H281.381L281.339 248.929H281.33H281.319H281.31H281.301H281.291H281.282H281.271H281.262H281.252H281.243H281.232H281.225H281.213H281.205H281.192H281.186L281.166 248.922L281.145 248.914H281.131H281.123H281.11H281.102H281.089H281.08H281.069H281.06H281.048H281.039H281.026H281.018H281.004H280.997L280.976 248.907H280.97H280.957H280.948H280.936H280.927H280.917H280.906H280.896H280.885H280.875H280.865H280.855H280.844H280.836H280.824L280.792 248.895H280.777H280.763H280.75H280.744H280.731H280.724H280.71H280.696H280.68L280.603 248.865L280.585 248.859L280.568 248.853L280.551 248.847L280.533 248.839L280.403 248.787L280.385 248.779L280.367 248.772L280.237 248.719L280.22 248.712L280.203 248.706L280.186 248.698L280.169 248.691L280.095 248.661H280.081H280.068H280.06H280.048H280.039H280.029H280.018H280.009H279.996H279.989L279.972 248.654L279.729 248.125ZM269.286 240.976L270.253 240.156C271.063 241.007 271.928 241.811 272.842 242.562C273.492 243.096 274.175 243.608 274.869 244.083L274.106 245.076C273.751 244.83 273.402 244.58 273.058 244.325L273.043 244.312L273.027 244.301L273.013 244.29L272.998 244.279L272.984 244.269L272.971 244.259L272.958 244.25L272.945 244.24L272.933 244.231L272.922 244.223L272.91 244.214L272.9 244.205L272.889 244.198L272.88 244.191H272.874L272.865 244.183H272.857L272.848 244.177L272.84 244.171L272.832 244.165L272.823 244.159H272.815L272.806 244.151H272.798L272.789 244.144H272.783L272.774 244.137H272.767L272.757 244.129L272.746 244.121L272.666 244.029L272.654 244.02L272.642 244.01L272.629 244L272.616 243.991L272.603 243.98L272.589 243.969L272.575 243.957L272.56 243.946L272.545 243.934L272.529 243.922L272.514 243.91L272.498 243.897C272.335 243.77 272.174 243.64 272.014 243.508L272 243.497L271.99 243.489L271.977 243.478L271.969 243.47L271.957 243.46H271.949H271.943L271.935 243.454L271.921 243.442L271.912 243.435L271.882 243.41L271.849 243.383C270.946 242.629 270.09 241.825 269.286 240.976ZM262.881 230.403L264.12 230.035C264.747 231.904 265.582 233.705 266.613 235.407L265.484 236.02C265.249 235.631 265.023 235.236 264.806 234.836L264.787 234.801L264.777 234.784L264.759 234.75L264.75 234.733L264.732 234.699L264.724 234.684L264.716 234.668L264.709 234.652L264.701 234.637L264.693 234.623L264.675 234.577L264.667 234.562L264.66 234.55L264.653 234.536L264.645 234.523V234.51L264.637 234.497L264.607 234.454V234.443L264.601 234.429V234.418V234.411V234.401L264.594 234.388V234.382V234.372V234.363V234.353V234.346V234.334V234.326V234.319V234.308V234.301V234.293V234.281V234.274V234.266V234.254V234.247V234.238V234.229V234.218V234.211V234.199V234.191V234.183L264.588 234.169L264.58 234.154V234.145L264.572 234.129L264.564 234.113V234.103L264.556 234.087L264.541 234.057L264.532 234.039L264.516 234.008L264.507 233.989L264.491 233.958L264.481 233.938L264.465 233.906L264.439 233.854C264.062 233.082 263.721 232.295 263.417 231.492L263.404 231.459L263.396 231.438L263.384 231.405L263.376 231.384L263.365 231.352L263.358 231.334V231.324L263.352 231.305V231.288V231.278V231.261L263.345 231.243V231.233V231.217V231.201V231.192V231.186V231.172V231.162V231.151V231.142V231.135V231.122V231.114V231.107V231.094V231.087V231.078V231.067V231.059V231.051V231.038V231.032L263.047 230.894V230.886V230.875V230.867V230.854V230.848V230.836V230.823V230.817V230.803V230.792V230.778V230.763V230.751V230.736V230.72V230.704V230.688V230.671V230.654V230.636L263.036 230.602V230.585L263.024 230.549V230.531L263.011 230.494L262.998 230.455L262.881 230.403ZM253.551 226.048V224.82H260.05V226.048H253.551ZM240.554 226.048V224.82H247.053V226.048H240.554ZM227.556 226.048V224.82H234.055V226.048H227.556ZM214.559 226.048V224.82H221.057V226.048H214.559ZM209.522 234.529C209.909 233.947 210.114 233.275 210.113 232.588V229.176H211.413V233.462V233.476V233.499V233.514V233.528V233.535V233.549V233.564V233.57V233.58V233.595V233.609V233.63V233.646V233.662C211.284 234.2 211.06 234.713 210.749 235.179L209.522 234.529ZM201.074 232.933L202.373 232.846C202.43 233.617 202.744 234.351 203.271 234.943C203.798 235.534 204.51 235.953 205.304 236.138L204.99 237.329C204.439 237.199 203.915 236.985 203.439 236.694L203.413 236.678L203.4 236.67L203.387 236.661L203.374 236.652L203.356 236.64L203.338 236.628L203.325 236.619L203.312 236.611L203.3 236.602L203.288 236.594L203.277 236.585L203.265 236.576L203.255 236.567L203.244 236.557H203.238L203.23 236.549L203.218 236.538L203.206 236.527L203.195 236.516L203.183 236.505L203.171 236.494L203.156 236.478L203.144 236.466L203.132 236.454L203.119 236.441L203.106 236.429L203.091 236.413L203.075 236.396L203.06 236.379L202.339 235.804L202.324 235.787L202.308 235.77L202.297 235.756L202.281 235.739L202.242 235.694L202.219 235.666L202.18 235.619C201.531 234.849 201.144 233.912 201.071 232.931L201.074 232.933ZM195.387 226.045V224.818H202.536L202.382 226.176C202.367 226.31 202.359 226.444 202.359 226.579V226.795H201.059V226.579C201.059 226.401 201.069 226.222 201.089 226.044L195.387 226.045ZM191.13 235.497V229.36H192.43V235.497H191.13ZM186.794 244.531L186.909 243.303C187.022 243.313 187.137 243.318 187.252 243.318C188.012 243.318 188.755 243.107 189.389 242.712C190.024 242.316 190.521 241.754 190.82 241.094L192.014 241.577C191.702 242.263 191.229 242.872 190.63 243.358L190.613 243.372L190.596 243.385L190.579 243.399L190.566 243.409L190.549 243.422L190.532 243.436L190.519 243.446L190.512 243.452L190.503 243.458L190.49 243.468L190.477 243.476L190.464 243.486L190.452 243.495L190.44 243.503L190.428 243.512L190.417 243.52L190.405 243.529L190.393 243.536H190.384H190.375H190.366H190.36H190.353H190.347H190.34H190.327H190.321H190.314H190.308H190.301H190.295H190.287H190.28H190.274H190.267H190.261H190.253H190.247H190.24H190.234H190.227H190.214H190.208H190.195H190.188H190.175H190.169H190.162H190.154H190.148H190.141H190.135H190.128H190.122H190.115H190.101H190.087H190.079H190.072H190.058H190.052H190.045H190.031H190.024H190.018H190.011H190.005H189.998H189.985H189.979H189.966H189.959H189.953H189.94H189.933H189.92H189.914H189.901H189.879H189.855H189.833H189.827H189.82H189.812H189.798H189.782H189.759H189.745H189.737H189.723H189.715H189.692H189.677H189.671H189.658H189.65H189.636H189.628H189.604H189.59H189.582H189.568H189.56H189.546H189.538H189.524H189.516H189.508H189.502H189.494H189.48H189.472H189.458H189.434H189.411H189.387H189.364H189.341H189.317H189.294H189.27H189.256H189.248H189.225H189.211H189.203H189.189H189.181H189.166H189.159H189.144H189.137H189.122H189.114H189.1H189.077H189.069H189.055H189.047H189.033H189.025H189.01H188.987H188.964H188.939H188.914H188.89H187.271C187.271 243.536 187.271 243.536 187.264 243.536H187.245H187.227H187.137H187.124C187.112 243.536 187.101 243.536 187.089 243.536C186.983 244.206 186.884 244.536 186.792 244.528L186.794 244.531ZM182.072 239.657H183.372C183.372 239.935 183.405 240.211 183.471 240.481L182.205 240.757C182.177 240.645 182.154 240.531 182.135 240.416V240.393L182.128 240.349V240.317V240.287V240.241V240.218V240.169V240.15V239.659L182.072 239.657ZM307.809 216.742L309.043 216.359C309.639 218.079 309.941 219.877 309.939 221.686H308.639V220.765V220.729V220.717V220.681V220.668V220.632V220.607V220.571V220.558V220.522V220.509C308.563 219.522 308.389 218.544 308.119 217.588V217.577L308.11 217.542V217.533V217.523L308.104 217.501V217.491V217.481V217.471V217.46V217.452V217.443V217.433V217.422L308.019 217.391V217.384V217.377V217.366V217.357V217.35V217.342V217.332V217.324V217.269V217.261V217.254V217.222V217.213V217.207V217.197V217.191V217.184L308.011 217.161V217.153V217.146L308 217.11V217.102L307.988 217.065V217.056L307.889 216.76L307.809 216.742ZM299.579 207.639L300.174 206.547C301.835 207.358 303.353 208.407 304.672 209.658C305.002 209.97 305.322 210.296 305.624 210.63L304.636 211.428C304.554 211.338 304.47 211.248 304.386 211.159L304.379 211.151L304.354 211.124L304.346 211.115L304.329 211.098L304.323 211.09L304.315 211.082L304.298 211.065L304.291 211.057L304.275 211.04L304.268 211.033V211.027L304.26 211.018L304.252 211.009L304.246 211.002L304.238 210.995L304.229 210.986L304.221 210.979V210.973L304.204 210.957V210.951L304.198 210.943L304.19 210.935L304.182 210.927V210.921L304.12 210.885L304.112 210.877L304.106 210.87L304.099 210.862L304.082 210.845V210.839L304.076 210.831L304.068 210.823L304.06 210.815L304.054 210.808L304.037 210.791L304.029 210.784L304.021 210.776L304.004 210.759L303.996 210.752L303.979 210.734L303.972 210.727L303.964 210.72L303.947 210.703L303.941 210.696L303.933 210.689L303.916 210.672L303.908 210.665L303.891 210.647L303.883 210.64L303.877 210.634L303.86 210.617L303.852 210.609L303.844 210.602L303.835 210.593L303.829 210.587L303.821 210.579L303.813 210.571L303.805 210.564L303.798 210.556L303.79 210.549L303.782 210.542L303.772 210.532L303.76 210.521L303.74 210.504L303.721 210.487L303.7 210.468H303.694L303.665 210.444L303.636 210.418L303.202 210.026C302.112 209.081 300.893 208.277 299.577 207.636L299.579 207.639ZM286.561 205.451C288.307 204.935 290.126 204.674 291.955 204.675C292.464 204.675 292.976 204.695 293.479 204.736L293.371 205.963C293.217 205.951 293.064 205.941 292.909 205.932H292.899H292.889H292.848H292.781H292.714H292.651H292.574H292.483H292.353H292.328H292.279H292.254H292.191H292.128H292.032H291.979C291.979 205.932 291.979 205.932 291.971 205.932H291.954H291.939C291.939 205.932 291.939 205.932 291.931 205.932H291.863H291.733H291.681H291.642H291.604H291.552H291.512H291.474H291.463H291.333H291.252H291.241H291.165H291.152H291.064H291.039H291.026H291.014H290.992H290.968H290.957H290.921H290.908H290.883H290.845H290.834H290.822H290.797H290.786H290.761H290.732H290.695H290.683H290.657H290.644H290.606H290.569H290.557H290.519H290.481C290.422 205.937 290.362 205.943 290.302 205.948C289.166 206.053 288.044 206.268 286.954 206.59L286.561 205.451ZM276.065 213.709C276.904 212.218 277.974 210.852 279.239 209.658C279.628 209.29 280.034 208.939 280.453 208.608L281.286 209.55C281.108 209.69 280.935 209.834 280.766 209.982L280.757 209.989L280.681 210.056L280.673 210.063L280.666 210.07L280.658 210.077L280.65 210.083L280.642 210.089L280.634 210.096L280.625 210.104L280.597 210.128L280.589 210.135L280.581 210.142H280.575H280.568L280.55 210.158H280.544L280.534 210.165L280.516 210.181L280.507 210.189L280.499 210.197L280.492 210.204L280.473 210.221L280.454 210.24L280.447 210.246L280.427 210.266C279.319 211.338 278.378 212.554 277.632 213.877L276.065 213.709ZM273.972 221.688C273.972 221.127 274.001 220.561 274.058 220.005L275.357 220.128L275.329 220.431V220.647C275.312 220.903 275.3 221.16 275.295 221.418V223.001V223.023V223.038V223.06V223.171V223.194V223.207V223.231V223.243V223.266V223.29V223.303V223.326V223.34V223.363V223.437V223.46V223.473V223.496V223.508V223.531V223.555V223.567V223.603V223.626V223.638V223.662V223.674V223.697V223.733V223.756V223.768V223.792V223.827V223.863V223.898L275.304 223.959C275.42 224.713 275.594 225.458 275.824 226.188L274.578 226.536C274.129 224.956 273.923 223.323 273.965 221.688H273.972ZM277.954 232.367L278.966 231.596C279.079 231.729 279.195 231.86 279.313 231.989L279.32 231.998L279.327 232.005V232.011V232.017V232.023L279.356 232.054L279.362 232.062L279.436 232.122L279.443 232.129L279.449 232.136L279.457 232.144L279.465 232.152C279.662 232.363 279.866 232.567 280.077 232.766L280.086 232.775L280.094 232.782L280.102 232.789L280.109 232.797L280.117 232.804L280.124 232.81L280.133 232.819L280.144 232.83L280.155 232.84L280.167 232.851L280.177 232.861L280.189 232.872L280.2 232.883L280.225 232.906L280.25 232.929L280.261 232.94L280.274 232.953L280.287 232.964L280.313 232.987L280.339 233.01L280.38 233.047L280.407 233.072C281.17 233.769 282.002 234.396 282.891 234.945L282.921 234.963L282.966 234.992L282.996 235.01L283.026 235.028L283.056 235.047L283.07 235.055L283.086 235.064L283.1 235.073L283.129 235.09L283.157 235.107L283.17 235.114L283.185 235.123L283.198 235.13L283.212 235.139L283.225 235.146L283.238 235.154L283.252 235.162L283.264 235.168L283.277 235.176L283.287 235.182L283.3 235.189L283.312 235.195L283.324 235.203L283.337 235.21H283.347L283.36 235.217H283.369L283.382 235.225H283.391H283.402H283.412H283.42L283.432 235.232H283.439L283.451 235.238H283.458H283.465H283.472H283.48H283.49H283.498H283.504H283.511H283.521H283.529H283.537H283.545H283.552H283.563H283.571L283.585 235.246H283.593L283.608 235.254H283.617L283.646 235.269H283.655L283.673 235.279H283.682L283.714 235.295L283.745 235.311L283.116 236.385C281.704 235.662 280.4 234.765 279.239 233.717C278.785 233.289 278.358 232.838 277.954 232.367ZM289.912 238.592L290.058 237.372L290.154 237.382H290.166H290.19H290.238H290.305H290.327H290.717H290.835H291.218H291.322H291.447H291.534H291.551H291.642H291.746H291.85H291.927C291.927 237.382 291.927 237.382 291.936 237.382C291.936 237.382 291.945 237.382 291.95 237.382H291.962C291.962 237.382 291.962 237.382 291.971 237.382C291.971 237.382 291.979 237.382 291.983 237.382H292.036H292.127H292.253H292.318H292.408H292.435H292.499H294.386H294.396H294.42H294.43H294.444H294.483H294.506H294.519H294.532H294.572H294.594H294.607H294.62H294.632H294.645H294.658H294.68H294.72H294.732H294.746H294.768H294.778H294.793H294.807H294.819H294.832H294.855H294.879H294.892H294.905H294.918H294.94H294.953H294.966H294.979H294.993H295.022H295.045H295.068H295.079H295.093H295.105H295.128H295.152H295.161H295.175H295.187H295.21H295.235H295.243H295.258H295.281H295.305H295.328H295.339H295.354H295.366H295.38H295.391H295.413H295.423H295.439H295.448H295.463H295.474H295.497H295.508H295.523H295.541H295.566H295.59H295.597H295.613H295.621H295.645H295.669H295.692H295.703H295.727H295.751H295.775H295.801H295.817H295.825H295.849H295.873H295.883H295.899H295.909H295.933H295.957H295.965H295.99H296.015H296.041L296.074 237.373H296.099L296.125 237.367L296.185 237.352L296.21 237.346L296.243 237.337L296.269 237.331L296.295 237.325L296.467 237.281H296.484L296.836 238.463C295.243 238.885 293.596 239.099 291.941 239.098C291.256 238.965 290.579 238.796 289.915 238.591L289.912 238.592ZM302.247 234.113C302.68 233.79 303.098 233.446 303.501 233.08L303.513 233.071L303.525 233.061L303.558 233.03L303.567 233.021L303.578 233.012L303.6 232.981L303.609 232.972L303.618 232.964L303.629 232.954L303.64 232.944L303.651 232.934L303.658 232.927L303.666 232.92L303.687 232.9L303.695 232.893L303.703 232.885L303.71 232.878L303.721 232.868L303.733 232.857L303.742 232.848L303.753 232.837L303.762 232.829L303.772 232.82L303.783 232.809L303.792 232.8L303.801 232.792L303.812 232.781L303.821 232.772L303.831 232.762L303.843 232.751L303.852 232.743L303.864 232.732L303.873 232.722L303.881 232.713L303.891 232.702L303.9 232.694L303.909 232.685L303.92 232.674L303.929 232.665L303.939 232.654L303.951 232.643L303.96 232.635L303.972 232.624L303.982 232.613L303.991 232.604L304.002 232.593L304.011 232.583L304.12 232.49L304.13 232.479L304.138 232.47L304.148 232.46L304.159 232.449L304.168 232.441L304.18 232.43L304.19 232.419L304.199 232.41L304.21 232.399L304.219 232.389L304.25 232.354L304.26 232.343L304.269 232.333L304.28 232.322L304.291 232.311L304.301 232.301L304.323 232.278L304.332 232.268L304.354 232.244L304.364 232.235L304.376 232.222L304.386 232.213L304.397 232.201L304.407 232.189L304.416 232.179L304.438 232.156L304.479 232.122L304.501 232.098L304.51 232.089L304.52 232.076L304.531 232.065L304.541 232.054L304.553 232.042L304.562 232.031L304.584 232.008L304.594 231.996L304.616 231.972L304.627 231.961L304.649 231.936L304.671 231.912L304.681 231.901L304.703 231.876L304.714 231.865L304.736 231.841L304.746 231.83L304.768 231.805L304.779 231.793L304.791 231.78L304.801 231.769L304.823 231.745L304.833 231.734L304.854 231.709L304.863 231.698L304.884 231.674L304.895 231.661L304.905 231.649L304.915 231.637L304.936 231.612L304.945 231.601L304.966 231.577L304.975 231.566L304.996 231.541L305.005 231.53L305.015 231.518L305.025 231.507L305.035 231.494L305.045 231.482L305.054 231.471L305.075 231.447L305.084 231.435L305.105 231.411L305.114 231.4L305.125 231.388L305.134 231.377L305.143 231.366L305.153 231.353L305.162 231.342L305.182 231.318L305.19 231.308L305.209 231.283L305.217 231.273L305.227 231.261L305.236 231.25L305.244 231.239L305.253 231.227L305.261 231.217L305.27 231.206L305.279 231.194L305.287 231.184L305.307 231.159L305.314 231.149L305.323 231.137L305.42 231.017L305.426 231.008L305.435 230.996L305.442 230.987L305.448 230.979L305.457 230.968V230.96L305.465 230.951L305.473 230.941V230.932L305.482 230.921V230.913V230.905L305.55 230.848V230.84V230.834V230.827L305.556 230.818V230.812V230.805V230.797V230.79V230.784V230.776L305.563 230.768V230.762V230.755L305.573 230.741V230.735L305.583 230.72V230.712V230.705L305.595 230.69V230.682V230.673L305.607 230.656V230.647L305.626 230.62V230.612L305.647 230.584L305.676 230.544C305.9 230.228 306.112 229.905 306.31 229.576L307.439 230.183C306.682 231.469 305.752 232.657 304.672 233.717C304.162 234.201 303.621 234.655 303.054 235.078L302.25 234.114L302.247 234.113ZM308.503 223.706L308.522 223.56V223.512V223.497V223.464V223.447V223.417V223.172V223.144V223.063V223.033V223.015V222.985V222.953V222.924V222.907V222.876V222.859V222.813V222.792V222.762V222.745V222.699V222.682V222.651V222.634V222.589V221.688H309.822C309.822 222.414 309.774 223.139 309.678 223.859L308.503 223.706Z" fill="#666666"/>
<path d="M182.072 239.657V233.52H183.372V239.657M182.072 239.657H183.372M182.072 239.657L182.128 239.659V240.15V240.169V240.218V240.241V240.287V240.317V240.349L182.135 240.393V240.416C182.154 240.531 182.177 240.645 182.205 240.757L183.471 240.481C183.405 240.211 183.372 239.935 183.372 239.657M182.072 227.382V226.577C182.071 225.649 182.35 224.74 182.877 223.957V223.935C182.715 223.694 182.577 223.439 182.465 223.173V223.14L182.447 223.094V223.018V223.009V222.935C182.292 222.499 182.207 222.044 182.194 221.585L183.494 221.553C183.511 222.185 183.715 222.8 184.083 223.328L184.546 223.991L184.095 224.661C183.7 225.248 183.491 225.929 183.493 226.625V227.43L182.072 227.382ZM185.661 216.957C185.865 216.903 186.073 216.862 186.282 216.834H186.293H186.302H186.311H186.32H186.328H186.336H186.364H186.621H186.636H186.65H186.664H186.679H186.693H186.707H186.722H186.736H186.751H186.766H186.772H186.779H186.785H186.792H186.798H186.805H186.881H186.888H186.894H186.901H186.907H186.914H186.92C186.92 216.834 186.92 216.834 186.927 216.834H192.109V218.062H186.936C186.611 218.061 186.287 218.103 185.974 218.184L185.661 216.957ZM198.643 218.016V216.789H205.142V218.016H198.643ZM211.641 218.016V216.789H218.139V218.016H211.641ZM224.638 218.016V216.789H231.137V218.016H224.638ZM237.636 218.016V216.789H244.135V218.016H237.636ZM250.633 218.016V216.789H257.132V218.016H250.633ZM262.242 215.193C262.463 214.288 262.729 213.397 263.041 212.519L263.073 212.427L263.093 212.372L263.106 212.336V212.319L263.119 212.285V212.268V212.25V212.233V212.217V212.201V212.185V212.169V212.155V212.139V212.124V212.108V212.093V212.08V212.065V212.05V212.037V212.022V212.009V211.995V211.98V211.968V211.953V211.94V211.934V211.924V211.91V211.904V211.893V211.885V211.875V211.867V211.855V211.848V211.839V211.828V211.82V211.811V211.802V211.791V211.785V211.772V211.766V211.756V211.741L263.127 211.723V211.713V211.697V211.687L263.135 211.669L263.142 211.65V211.639L263.15 211.618L263.163 211.586L263.171 211.567L263.184 211.535L263.206 211.48C263.475 210.82 263.768 210.171 264.086 209.533L265.256 210.056C264.371 211.829 263.69 213.687 263.223 215.597L261.957 215.321L262.242 215.193ZM267.734 204.17C268.547 203.163 269.429 202.208 270.374 201.311L270.388 201.297L270.447 201.242L270.456 201.227L270.47 201.214L270.528 201.16L270.541 201.147L270.596 201.096L270.608 201.085L270.639 201.065L270.678 201.028L270.69 201.019L270.716 200.994L270.726 200.984L270.75 200.963L270.769 200.942L270.776 200.936L270.785 200.928L270.793 200.92L270.802 200.912L270.81 200.904L270.819 200.896L270.828 200.887L270.841 200.875L270.846 200.868L270.854 200.86L270.863 200.852L270.871 200.844L270.88 200.836L270.888 200.828L270.904 200.82L270.92 200.805L270.93 200.795H270.937L270.947 200.785H270.954L270.976 200.752L271.01 200.722L271.023 200.71L271.036 200.699L271.053 200.685L271.071 200.669L271.106 200.634L271.12 200.622L271.137 200.607L271.174 200.575L271.19 200.56L271.207 200.545C271.524 200.267 271.848 199.994 272.178 199.727L273.022 200.661C271.449 201.932 270.022 203.356 268.766 204.91L267.733 204.165L267.734 204.17ZM277.548 196.261C277.676 196.195 277.806 196.131 277.937 196.068L277.988 196.032H278.006L278.043 196.015L278.06 196.007L278.095 195.989L278.112 195.982L278.129 195.975L278.147 195.966L278.164 195.958L278.178 195.95L278.212 195.934L278.243 195.91H278.262L278.279 195.901L278.294 195.894L278.307 195.888L278.324 195.879L278.338 195.872H278.351L278.368 195.864L278.385 195.857H278.396L278.409 195.851L278.426 195.843H278.438H278.45L278.515 195.787H278.528H278.539L278.554 195.781L278.57 195.773H278.582H278.594L278.645 195.724H278.656H278.668L278.685 195.717L278.699 195.711H278.711H278.724L278.775 195.664H278.786H278.798L278.814 195.657H278.825H278.837L278.892 195.615H278.905H278.915H278.928L278.943 195.608H278.955H278.967L278.984 195.6H278.997H279.008L279.024 195.593L279.038 195.587H279.05H279.063L279.08 195.579H279.092H279.103L279.12 195.572H279.135H279.148L279.181 195.557H279.194L279.209 195.551L279.339 195.419H279.352H279.365L279.382 195.411L279.397 195.405H279.41L279.445 195.39H279.46L279.475 195.383L279.493 195.376L279.509 195.37L279.523 195.363L279.558 195.349L279.619 195.296L279.656 195.281L279.671 195.275L279.688 195.268L279.706 195.26L279.723 195.253L279.739 195.247L279.775 195.232L279.814 195.22L279.851 195.205L279.868 195.198L279.924 195.173L279.944 195.166L279.982 195.151L280 195.144L280.056 195.122L280.112 195.099L280.169 195.077L280.187 195.07L280.245 195.048L280.302 195.026L280.378 194.996L280.436 194.974L280.493 194.952L280.623 194.901L280.68 194.879L280.698 194.871L280.755 194.85L280.813 194.829L280.879 194.805L280.897 194.799L280.935 194.785L280.953 194.779L280.971 194.773L281.009 194.759H281.026L281.063 194.746H281.079L281.115 194.732H281.131H281.145L281.163 194.726H281.179H281.192L281.244 194.67L281.262 194.664H281.27H281.28H281.291H281.3H281.31H281.318H281.33H281.343H281.357C282.05 194.418 282.748 194.201 283.45 194.012H283.467H283.484L283.556 193.946L283.915 195.125C283.173 195.327 282.428 195.559 281.705 195.816C280.49 196.248 279.307 196.756 278.164 197.337L277.548 196.256V196.261ZM289.952 192.902C290.337 192.878 290.723 192.862 291.111 192.852H291.22H291.915C291.915 192.852 291.926 192.852 291.931 192.852H291.955V192.841H291.983C291.983 192.841 291.993 192.841 292 192.841C292.006 192.841 292.014 192.841 292.022 192.841H292.215H295.305H295.323H295.365H295.384H295.436H295.454H295.502H295.523H295.553H295.593H295.622H295.643H295.691H295.714H295.759H295.785H295.81H295.852H295.881H295.903H295.948H295.973H296.017H296.042H296.068H296.111H296.137H296.163H296.206H296.232H296.273H296.301H296.325H296.369H296.395H296.423L296.234 194.055C294.809 193.962 293.379 193.966 291.955 194.068C291.315 194.068 290.667 194.088 290.032 194.127L289.952 192.902ZM302.248 195.834L302.708 194.682L302.792 194.712H302.798H302.808H302.82H302.827L302.869 194.728C303.173 194.838 303.476 194.953 303.779 195.072L303.798 195.08L303.818 195.088L303.839 195.097H303.853H303.861H303.873H303.881H303.892H303.902H303.913H303.921H303.933H303.941H303.954H303.961H303.976L304.016 195.114L304.031 195.12H304.044H304.052H304.065H304.073H304.086H304.093H304.106H304.112H304.125H304.133H304.147L304.189 195.138L304.25 195.28L304.265 195.286L304.288 195.296H304.302H304.308H304.323H304.329H304.343L304.36 195.303L304.423 195.329L304.44 195.336L304.455 195.343L304.47 195.349L304.485 195.355L304.501 195.362L304.562 195.419L304.624 195.446L304.644 195.454L304.661 195.462L304.677 195.469L304.694 195.476L304.713 195.485L304.817 195.53L304.835 195.539L304.853 195.548L304.871 195.556L304.891 195.565L305.036 195.63L305.056 195.638C306.104 196.111 307.123 196.641 308.108 197.224L308.126 197.235L308.143 197.245L308.16 197.255L308.178 197.266L308.254 197.311L308.271 197.323L308.286 197.331L308.299 197.34L308.312 197.347L308.325 197.354L308.338 197.363L308.354 197.373L308.374 197.384L308.391 197.394L308.404 197.401H308.41H308.418L307.711 198.431C306.291 197.563 304.794 196.814 303.237 196.191C302.964 196.097 302.604 195.961 302.248 195.834ZM312.614 202.17L313.535 201.311C314.142 201.884 314.716 202.475 315.259 203.085L315.389 203.232L315.404 203.249L315.419 203.266L315.433 203.283L315.449 203.301L315.545 203.411L315.559 203.427L315.572 203.443L315.585 203.459L315.599 203.476L315.663 203.55L315.688 203.579L315.701 203.594L315.712 203.607L315.724 203.621L315.736 203.636L315.749 203.65L315.763 203.668L315.794 203.704L315.809 203.722L315.852 203.766L315.863 203.779L315.874 203.792L315.884 203.804L315.894 203.817L315.906 203.831L315.948 203.879L315.979 203.916L315.991 203.93L316.001 203.943V203.949L316.01 203.961V203.968L316.019 203.979V203.987L316.053 204.011V204.019L316.062 204.03V204.036L316.072 204.048V204.054L316.084 204.069L316.098 204.087L316.11 204.101V204.107L316.119 204.118V204.125L316.127 204.135L316.134 204.144L316.141 204.154L316.148 204.162L316.156 204.172L316.162 204.181L316.208 204.195V204.204L316.215 204.213L316.223 204.221L316.231 204.231L316.238 204.24L316.252 204.257L316.261 204.268L316.271 204.28L316.279 204.289L316.287 204.299L316.293 204.307L316.301 204.317L316.309 204.326L316.317 204.334L316.325 204.344L316.331 204.353L316.338 204.359V204.367L316.352 204.38H316.358L316.366 204.389L316.373 204.398L316.381 204.408L316.387 204.416L316.395 204.426V204.434L316.41 204.454V204.462L316.42 204.473V204.48L316.446 204.502V204.51L316.453 204.521V204.528L316.461 204.538V204.545L316.469 204.556V204.564L316.477 204.575V204.582L316.486 204.593V204.601L316.495 204.612L316.531 204.658L316.542 204.672L316.551 204.684L316.56 204.696L316.569 204.709V204.715L316.578 204.727L316.587 204.739L316.598 204.753L316.728 204.871L316.738 204.884L316.748 204.898L316.759 204.911L316.769 204.925L316.78 204.939L316.856 205.042L316.868 205.058L316.88 205.074L316.919 205.116L316.93 205.132L316.942 205.148L317.02 205.254L317.032 205.27L317.043 205.285L317.055 205.301L317.067 205.319L317.169 205.461L317.182 205.478L317.195 205.495C317.331 205.684 317.464 205.874 317.594 206.065L316.501 206.729C315.379 205.084 314.076 203.556 312.614 202.17ZM319.296 211.99L320.512 211.559C320.599 211.784 320.686 212.011 320.772 212.238L320.78 212.259V212.275V212.282V212.297V212.304V212.319V212.327V212.34V212.349V212.358V212.371V212.379V212.393V212.401V212.415V212.422V212.437V212.443V212.458V212.464V212.478V212.485V212.5V212.516V212.533V212.55V212.567L320.787 212.586L320.793 212.605L320.801 212.626L320.809 212.647L320.815 212.667L320.822 212.687L320.83 212.708C321.314 213.996 321.701 215.315 321.985 216.655L322.005 216.764V216.784V216.803V216.822V216.84V216.859V216.876V216.892V216.908V216.924V216.931V216.946V216.954V216.968V216.976V216.989V217.008V217.022V217.03V217.045V217.051V217.069V217.088L322.062 217.443L320.775 217.62C320.494 215.699 319.998 213.812 319.296 211.99ZM320.024 229.312C320.594 227.425 320.949 225.487 321.083 223.529L322.383 223.609C322.328 224.394 322.242 225.172 322.123 225.941V225.963V225.984V226.006L322.093 226.107V226.128V226.149V226.169V226.19V226.211L322.085 226.254V226.275V226.296V226.315V226.335V226.355V226.374V226.394V226.415V226.435V226.454V226.473V226.491V226.509V226.528V226.546V226.565V226.583V226.601V226.62V226.637V226.654V226.671V226.689V226.705V226.722V226.739V226.755V226.771V226.777V226.793V226.799V226.814V226.821V226.836V226.842V226.857V226.873V226.879V226.895V226.901V226.917V226.923V226.939V226.946V226.961V226.969V226.982V226.991V227.003V227.011V227.025V227.032V227.047V227.054V227.07V227.078V227.092V227.212V227.226V227.234V227.248V227.257V227.269V227.279V227.291V227.301V227.313V227.322V227.336V227.343V227.358V227.365V227.38V227.387V227.402V227.409V227.423V227.431V227.444V227.453V227.466V227.475V227.488V227.496V227.51V227.517V227.532V227.539V227.554V227.561V227.576V227.584V227.598V227.606V227.618V227.628V227.64V227.649V227.661V227.668V227.683V227.69V227.705V227.712V227.727V227.734V227.75V227.758V227.774V227.78V227.795V227.802V227.817V227.825V227.84V227.856V227.862V227.878V227.894V227.911V227.928V227.946V227.963V227.98V227.997V228.014V228.032V228.049V228.067V228.087V228.108L321.667 228.194V228.213V228.233V228.253V228.272V228.292L321.645 228.378V228.399C321.541 228.808 321.427 229.217 321.303 229.626L320.024 229.312ZM314.189 239.591C315.535 238.099 316.708 236.475 317.688 234.747L318.834 235.327V235.334L318.825 235.351L318.762 235.463L318.753 235.479L318.743 235.495L318.734 235.511L318.725 235.527L318.715 235.544L318.66 235.639L318.65 235.656L318.641 235.672L318.632 235.688L318.623 235.704L318.614 235.72L318.549 235.83L318.539 235.846L318.53 235.862L318.521 235.878L318.511 235.894L318.445 236.004L318.434 236.02L318.425 236.036L318.416 236.051L318.407 236.067L318.396 236.084L318.339 236.176L318.329 236.192L318.32 236.208L318.311 236.224L318.302 236.24L318.291 236.256L318.224 236.364L318.213 236.38L318.204 236.395L318.195 236.409L318.186 236.424L318.175 236.44L318.118 236.53L318.108 236.546L318.027 236.664L318.018 236.678L318.009 236.693L317.999 236.709L317.94 236.799L317.93 236.815L317.921 236.829L317.912 236.844L317.903 236.859L317.892 236.873L317.882 236.889L317.835 236.961L317.825 236.977L317.783 237.032L317.774 237.047L317.765 237.061L317.756 237.076L317.745 237.092L317.687 237.179L317.678 237.194L317.669 237.207L317.659 237.221L317.65 237.234L317.64 237.249L317.58 237.336L317.57 237.351L317.561 237.364L317.552 237.378L317.543 237.391L317.533 237.405L317.523 237.42L317.475 237.488L317.465 237.503L317.455 237.517L317.446 237.53L317.437 237.544L317.428 237.557L317.419 237.571L317.409 237.585L317.372 237.637L317.362 237.65L317.353 237.663L317.344 237.675V237.682L317.335 237.695V237.701L317.325 237.713V237.719L317.316 237.731L317.307 237.745L317.262 237.809L317.253 237.822L317.244 237.835V237.841L317.234 237.853V237.859L317.227 237.87V237.878L317.218 237.89V237.896L317.208 237.908V237.914L317.199 237.927L317.167 237.972L317.158 237.984V237.99L317.15 238.002V238.009L317.142 238.02V238.027L317.134 238.038V238.046L317.127 238.057V238.064L317.119 238.075V238.083L317.111 238.094L317.08 238.137V238.143L317.072 238.154V238.161L317.064 238.171V238.18L317.056 238.189V238.198L317.049 238.208L317.042 238.216L317.034 238.226V238.235L317.026 238.245L317.02 238.253L317.012 238.263V238.272L317.004 238.281L316.998 238.29L316.984 238.31V238.317L316.976 238.328V238.335L316.968 238.345L316.728 238.505L316.721 238.515L316.715 238.523L316.707 238.533L316.7 238.542L316.692 238.551V238.56L316.685 238.57L316.678 238.578L316.67 238.588L316.663 238.598L316.656 238.607L316.647 238.618V238.625L316.633 238.644V238.65L316.624 238.662V238.669L316.616 238.68V238.689L316.608 238.699V238.707L316.6 238.717L316.594 238.726L316.586 238.736V238.744L316.578 238.755V238.763L316.569 238.775V238.781L316.559 238.795L316.53 238.831L316.52 238.845V238.851L316.51 238.863V238.871L316.501 238.882V238.889L316.492 238.901V238.907L316.482 238.92L316.471 238.932L316.46 238.945L316.43 238.982L316.418 238.997L316.408 239.009L316.397 239.022V239.028L316.388 239.04V239.046L316.379 239.058V239.065L316.369 239.077L316.357 239.092L316.343 239.11L316.313 239.148L316.3 239.164L316.288 239.177L316.278 239.191L316.267 239.205L316.256 239.218L316.244 239.233L316.23 239.25L316.183 239.306L316.17 239.322L316.158 239.337L316.147 239.352L316.134 239.367L315.948 239.487L315.87 239.58L315.855 239.597L315.841 239.613L315.828 239.629L315.814 239.646L315.719 239.758L315.705 239.775L315.69 239.792L315.675 239.811C315.514 239.997 315.352 240.182 315.187 240.366L314.189 239.591ZM304.386 246.689C306.263 245.853 308.04 244.829 309.687 243.636L310.478 244.609C310.156 244.843 309.829 245.071 309.497 245.292L309.332 245.401L309.312 245.415L309.292 245.428L309.162 245.509L309.142 245.521L309.123 245.534L309.104 245.546L309.085 245.558L308.981 245.624L308.961 245.637L308.943 245.648L308.926 245.659L308.909 245.67L308.891 245.682L308.808 245.735L308.791 245.746L308.776 245.756L308.76 245.766L308.744 245.775L308.728 245.785L308.709 245.796L308.668 245.822L308.647 245.834L308.631 245.844L308.617 245.853L308.603 245.861H308.596L308.583 245.87H308.577L308.564 245.879H308.556L308.543 245.887H308.536L308.521 245.897L308.5 245.909L308.482 245.92H308.475L308.462 245.929H308.455L308.442 245.936H308.434L308.422 245.944H308.413L308.401 245.951H308.392L308.38 245.957H308.371L308.36 245.964H308.351L308.339 245.972H308.33L308.317 245.979L308.301 245.989L308.29 245.996L308.279 246.003H308.269L308.257 246.009H308.248L308.236 246.016H308.227L308.215 246.023H308.206L308.195 246.03H308.186L308.174 246.037H308.166L308.154 246.044H308.147L308.134 246.052H308.127L308.079 246.08L308.066 246.087H308.059L308.046 246.095H308.04L308.027 246.102H308.019L308.006 246.109H307.998L307.985 246.117H307.979L307.965 246.125L307.949 246.134L307.876 246.176L307.861 246.184L307.846 246.193L307.832 246.201L307.816 246.21L307.801 246.219L307.784 246.228L307.688 246.282L307.671 246.292L307.654 246.302L307.637 246.312L307.619 246.322L307.482 246.398L307.463 246.409L307.443 246.42C306.673 246.845 305.882 247.238 305.071 247.6L304.386 246.689ZM292.356 249.307C294.431 249.282 296.498 249.048 298.522 248.61L298.814 249.805H298.795H298.777H298.758H298.739H298.719H298.701H298.683H298.663H298.644H298.624H298.605H298.585H298.566H298.548H298.53H298.51H298.491H298.472H298.454H298.436H298.418H298.4H298.381H298.363H298.345H298.327H298.31H298.292H298.274H298.255H298.238H298.22H298.202H298.185H298.17H298.163H298.147H298.131H298.124H298.107H298.101H298.084H298.077H298.06H297.881H297.864H297.849H297.841H297.825H297.819H297.803H297.786H297.78H297.763H297.756H297.739H297.733H297.716H297.708H297.691H297.685H297.67H297.661H297.647H297.621H297.605H297.598H297.582H297.574H297.557H297.55H297.534H297.526H297.509H297.501H297.486H297.478H297.465H297.455H297.442H297.431H297.418H297.409H297.395H297.386H297.37H297.361H297.346H297.336H297.321H297.312H297.297H297.287H297.275H297.264H297.253H297.242H297.23H297.218H297.209H297.195H297.186H297.171H297.162H297.148H297.139H297.127H297.115H297.101H297.087H297.078H297.062H297.054H297.039H297.031H297.015H297.008H296.992H296.965H296.948H296.94H296.923H296.917H296.898H296.88H296.862H296.844H296.823H296.787H296.766H296.745H296.724H296.705H296.684H296.662L296.599 249.814H296.575H296.551H296.528H296.505L296.393 249.83H296.369H296.345C295.267 249.974 294.183 250.064 293.095 250.099H293.046H293.021H292.445L292.356 249.307ZM279.729 248.125L280.248 247.001C280.683 247.181 281.128 247.353 281.573 247.512C283.065 248.05 284.602 248.47 286.168 248.768L285.908 249.971C285.791 249.949 285.674 249.926 285.557 249.902H285.538H285.52H285.502H285.483L285.42 249.89H285.403H285.389H285.383H285.37H285.362H285.349H285.341H285.329H285.321H285.31H285.301H285.289H285.28H285.269H285.241H285.228H285.22H285.207H285.199H285.186H285.18H285.167H285.143H285.13H285.116H285.102H285.085L284.99 249.869H284.972H284.954H284.935C283.884 249.636 282.846 249.349 281.826 249.01H281.808H281.791H281.773L281.643 248.967H281.628H281.613H281.599H281.585H281.57L281.501 248.944H281.487H281.474H281.461H281.455H281.443H281.436H281.425H281.417H281.405H281.399H281.387H281.381L281.339 248.929H281.33H281.319H281.31H281.301H281.291H281.282H281.271H281.262H281.252H281.243H281.232H281.225H281.213H281.205H281.192H281.186L281.166 248.922L281.145 248.914H281.131H281.123H281.11H281.102H281.089H281.08H281.069H281.06H281.048H281.039H281.026H281.018H281.004H280.997L280.976 248.907H280.97H280.957H280.948H280.936H280.927H280.917H280.906H280.896H280.885H280.875H280.865H280.855H280.844H280.836H280.824L280.792 248.895H280.777H280.763H280.75H280.744H280.731H280.724H280.71H280.696H280.68L280.603 248.865L280.585 248.859L280.568 248.853L280.551 248.847L280.533 248.839L280.403 248.787L280.385 248.779L280.367 248.772L280.237 248.719L280.22 248.712L280.203 248.706L280.186 248.698L280.169 248.691L280.095 248.661H280.081H280.068H280.06H280.048H280.039H280.029H280.018H280.009H279.996H279.989L279.972 248.654L279.729 248.125ZM269.286 240.976L270.253 240.156C271.063 241.007 271.928 241.811 272.842 242.562C273.492 243.096 274.175 243.608 274.869 244.083L274.106 245.076C273.751 244.83 273.402 244.58 273.058 244.325L273.043 244.312L273.027 244.301L273.013 244.29L272.998 244.279L272.984 244.269L272.971 244.259L272.958 244.25L272.945 244.24L272.933 244.231L272.922 244.223L272.91 244.214L272.9 244.205L272.889 244.198L272.88 244.191H272.874L272.865 244.183H272.857L272.848 244.177L272.84 244.171L272.832 244.165L272.823 244.159H272.815L272.806 244.151H272.798L272.789 244.144H272.783L272.774 244.137H272.767L272.757 244.129L272.746 244.121L272.666 244.029L272.654 244.02L272.642 244.01L272.629 244L272.616 243.991L272.603 243.98L272.589 243.969L272.575 243.957L272.56 243.946L272.545 243.934L272.529 243.922L272.514 243.91L272.498 243.897C272.335 243.77 272.174 243.64 272.014 243.508L272 243.497L271.99 243.489L271.977 243.478L271.969 243.47L271.957 243.46H271.949H271.943L271.935 243.454L271.921 243.442L271.912 243.435L271.882 243.41L271.849 243.383C270.946 242.629 270.09 241.825 269.286 240.976ZM262.881 230.403L264.12 230.035C264.747 231.904 265.582 233.705 266.613 235.407L265.484 236.02C265.249 235.631 265.023 235.236 264.806 234.836L264.787 234.801L264.777 234.784L264.759 234.75L264.75 234.733L264.732 234.699L264.724 234.684L264.716 234.668L264.709 234.652L264.701 234.637L264.693 234.623L264.675 234.577L264.667 234.562L264.66 234.55L264.653 234.536L264.645 234.523V234.51L264.637 234.497L264.607 234.454V234.443L264.601 234.429V234.418V234.411V234.401L264.594 234.388V234.382V234.372V234.363V234.353V234.346V234.334V234.326V234.319V234.308V234.301V234.293V234.281V234.274V234.266V234.254V234.247V234.238V234.229V234.218V234.211V234.199V234.191V234.183L264.588 234.169L264.58 234.154V234.145L264.572 234.129L264.564 234.113V234.103L264.556 234.087L264.541 234.057L264.532 234.039L264.516 234.008L264.507 233.989L264.491 233.958L264.481 233.938L264.465 233.906L264.439 233.854C264.062 233.082 263.721 232.295 263.417 231.492L263.404 231.459L263.396 231.438L263.384 231.405L263.376 231.384L263.365 231.352L263.358 231.334V231.324L263.352 231.305V231.288V231.278V231.261L263.345 231.243V231.233V231.217V231.201V231.192V231.186V231.172V231.162V231.151V231.142V231.135V231.122V231.114V231.107V231.094V231.087V231.078V231.067V231.059V231.051V231.038V231.032L263.047 230.894V230.886V230.875V230.867V230.854V230.848V230.836V230.823V230.817V230.803V230.792V230.778V230.763V230.751V230.736V230.72V230.704V230.688V230.671V230.654V230.636L263.036 230.602V230.585L263.024 230.549V230.531L263.011 230.494L262.998 230.455L262.881 230.403ZM253.551 226.048V224.82H260.05V226.048H253.551ZM240.554 226.048V224.82H247.053V226.048H240.554ZM227.556 226.048V224.82H234.055V226.048H227.556ZM214.559 226.048V224.82H221.057V226.048H214.559ZM209.522 234.529C209.909 233.947 210.114 233.275 210.113 232.588V229.176H211.413V233.462V233.476V233.499V233.514V233.528V233.535V233.549V233.564V233.57V233.58V233.595V233.609V233.63V233.646V233.662C211.284 234.2 211.06 234.713 210.749 235.179L209.522 234.529ZM201.074 232.933L202.373 232.846C202.43 233.617 202.744 234.351 203.271 234.943C203.798 235.534 204.51 235.953 205.304 236.138L204.99 237.329C204.439 237.199 203.915 236.985 203.439 236.694L203.413 236.678L203.4 236.67L203.387 236.661L203.374 236.652L203.356 236.64L203.338 236.628L203.325 236.619L203.312 236.611L203.3 236.602L203.288 236.594L203.277 236.585L203.265 236.576L203.255 236.567L203.244 236.557H203.238L203.23 236.549L203.218 236.538L203.206 236.527L203.195 236.516L203.183 236.505L203.171 236.494L203.156 236.478L203.144 236.466L203.132 236.454L203.119 236.441L203.106 236.429L203.091 236.413L203.075 236.396L203.06 236.379L202.339 235.804L202.324 235.787L202.308 235.77L202.297 235.756L202.281 235.739L202.242 235.694L202.219 235.666L202.18 235.619C201.531 234.849 201.144 233.912 201.071 232.931L201.074 232.933ZM195.387 226.045V224.818H202.536L202.382 226.176C202.367 226.31 202.359 226.444 202.359 226.579V226.795H201.059V226.579C201.059 226.401 201.069 226.222 201.089 226.044L195.387 226.045ZM191.13 235.497V229.36H192.43V235.497H191.13ZM186.794 244.531L186.909 243.303C187.022 243.313 187.137 243.318 187.252 243.318C188.012 243.318 188.755 243.107 189.389 242.712C190.024 242.316 190.521 241.754 190.82 241.094L192.014 241.577C191.702 242.263 191.229 242.872 190.63 243.358L190.613 243.372L190.596 243.385L190.579 243.399L190.566 243.409L190.549 243.422L190.532 243.436L190.519 243.446L190.512 243.452L190.503 243.458L190.49 243.468L190.477 243.476L190.464 243.486L190.452 243.495L190.44 243.503L190.428 243.512L190.417 243.52L190.405 243.529L190.393 243.536H190.384H190.375H190.366H190.36H190.353H190.347H190.34H190.327H190.321H190.314H190.308H190.301H190.295H190.287H190.28H190.274H190.267H190.261H190.253H190.247H190.24H190.234H190.227H190.214H190.208H190.195H190.188H190.175H190.169H190.162H190.154H190.148H190.141H190.135H190.128H190.122H190.115H190.101H190.087H190.079H190.072H190.058H190.052H190.045H190.031H190.024H190.018H190.011H190.005H189.998H189.985H189.979H189.966H189.959H189.953H189.94H189.933H189.92H189.914H189.901H189.879H189.855H189.833H189.827H189.82H189.812H189.798H189.782H189.759H189.745H189.737H189.723H189.715H189.692H189.677H189.671H189.658H189.65H189.636H189.628H189.604H189.59H189.582H189.568H189.56H189.546H189.538H189.524H189.516H189.508H189.502H189.494H189.48H189.472H189.458H189.434H189.411H189.387H189.364H189.341H189.317H189.294H189.27H189.256H189.248H189.225H189.211H189.203H189.189H189.181H189.166H189.159H189.144H189.137H189.122H189.114H189.1H189.077H189.069H189.055H189.047H189.033H189.025H189.01H188.987H188.964H188.939H188.914H188.89H187.271C187.271 243.536 187.271 243.536 187.264 243.536H187.245H187.227H187.137H187.124C187.112 243.536 187.101 243.536 187.089 243.536C186.983 244.206 186.884 244.536 186.792 244.528L186.794 244.531ZM307.809 216.742L309.043 216.359C309.639 218.079 309.941 219.877 309.939 221.686H308.639V220.765V220.729V220.717V220.681V220.668V220.632V220.607V220.571V220.558V220.522V220.509C308.563 219.522 308.389 218.544 308.119 217.588V217.577L308.11 217.542V217.533V217.523L308.104 217.501V217.491V217.481V217.471V217.46V217.452V217.443V217.433V217.422L308.019 217.391V217.384V217.377V217.366V217.357V217.35V217.342V217.332V217.324V217.269V217.261V217.254V217.222V217.213V217.207V217.197V217.191V217.184L308.011 217.161V217.153V217.146L308 217.11V217.102L307.988 217.065V217.056L307.889 216.76L307.809 216.742ZM299.579 207.639L300.174 206.547C301.835 207.358 303.353 208.407 304.672 209.658C305.002 209.97 305.322 210.296 305.624 210.63L304.636 211.428C304.554 211.338 304.47 211.248 304.386 211.159L304.379 211.151L304.354 211.124L304.346 211.115L304.329 211.098L304.323 211.09L304.315 211.082L304.298 211.065L304.291 211.057L304.275 211.04L304.268 211.033V211.027L304.26 211.018L304.252 211.009L304.246 211.002L304.238 210.995L304.229 210.986L304.221 210.979V210.973L304.204 210.957V210.951L304.198 210.943L304.19 210.935L304.182 210.927V210.921L304.12 210.885L304.112 210.877L304.106 210.87L304.099 210.862L304.082 210.845V210.839L304.076 210.831L304.068 210.823L304.06 210.815L304.054 210.808L304.037 210.791L304.029 210.784L304.021 210.776L304.004 210.759L303.996 210.752L303.979 210.734L303.972 210.727L303.964 210.72L303.947 210.703L303.941 210.696L303.933 210.689L303.916 210.672L303.908 210.665L303.891 210.647L303.883 210.64L303.877 210.634L303.86 210.617L303.852 210.609L303.844 210.602L303.835 210.593L303.829 210.587L303.821 210.579L303.813 210.571L303.805 210.564L303.798 210.556L303.79 210.549L303.782 210.542L303.772 210.532L303.76 210.521L303.74 210.504L303.721 210.487L303.7 210.468H303.694L303.665 210.444L303.636 210.418L303.202 210.026C302.112 209.081 300.893 208.277 299.577 207.636L299.579 207.639ZM286.561 205.451C288.307 204.935 290.126 204.674 291.955 204.675C292.464 204.675 292.976 204.695 293.479 204.736L293.371 205.963C293.217 205.951 293.064 205.941 292.909 205.932H292.899H292.889H292.848H292.781H292.714H292.651H292.574H292.483H292.353H292.328H292.279H292.254H292.191H292.128H292.032H291.979C291.979 205.932 291.979 205.932 291.971 205.932H291.954H291.939C291.939 205.932 291.939 205.932 291.931 205.932H291.863H291.733H291.681H291.642H291.604H291.552H291.512H291.474H291.463H291.333H291.252H291.241H291.165H291.152H291.064H291.039H291.026H291.014H290.992H290.968H290.957H290.921H290.908H290.883H290.845H290.834H290.822H290.797H290.786H290.761H290.732H290.695H290.683H290.657H290.644H290.606H290.569H290.557H290.519H290.481C290.422 205.937 290.362 205.943 290.302 205.948C289.166 206.053 288.044 206.268 286.954 206.59L286.561 205.451ZM276.065 213.709C276.904 212.218 277.974 210.852 279.239 209.658C279.628 209.29 280.034 208.939 280.453 208.608L281.286 209.55C281.108 209.69 280.935 209.834 280.766 209.982L280.757 209.989L280.681 210.056L280.673 210.063L280.666 210.07L280.658 210.077L280.65 210.083L280.642 210.089L280.634 210.096L280.625 210.104L280.597 210.128L280.589 210.135L280.581 210.142H280.575H280.568L280.55 210.158H280.544L280.534 210.165L280.516 210.181L280.507 210.189L280.499 210.197L280.492 210.204L280.473 210.221L280.454 210.24L280.447 210.246L280.427 210.266C279.319 211.338 278.378 212.554 277.632 213.877L276.065 213.709ZM273.972 221.688C273.972 221.127 274.001 220.561 274.058 220.005L275.357 220.128L275.329 220.431V220.647C275.312 220.903 275.3 221.16 275.295 221.418V223.001V223.023V223.038V223.06V223.171V223.194V223.207V223.231V223.243V223.266V223.29V223.303V223.326V223.34V223.363V223.437V223.46V223.473V223.496V223.508V223.531V223.555V223.567V223.603V223.626V223.638V223.662V223.674V223.697V223.733V223.756V223.768V223.792V223.827V223.863V223.898L275.304 223.959C275.42 224.713 275.594 225.458 275.824 226.188L274.578 226.536C274.129 224.956 273.923 223.323 273.965 221.688H273.972ZM277.954 232.367L278.966 231.596C279.079 231.729 279.195 231.86 279.313 231.989L279.32 231.998L279.327 232.005V232.011V232.017V232.023L279.356 232.054L279.362 232.062L279.436 232.122L279.443 232.129L279.449 232.136L279.457 232.144L279.465 232.152C279.662 232.363 279.866 232.567 280.077 232.766L280.086 232.775L280.094 232.782L280.102 232.789L280.109 232.797L280.117 232.804L280.124 232.81L280.133 232.819L280.144 232.83L280.155 232.84L280.167 232.851L280.177 232.861L280.189 232.872L280.2 232.883L280.225 232.906L280.25 232.929L280.261 232.94L280.274 232.953L280.287 232.964L280.313 232.987L280.339 233.01L280.38 233.047L280.407 233.072C281.17 233.769 282.002 234.396 282.891 234.945L282.921 234.963L282.966 234.992L282.996 235.01L283.026 235.028L283.056 235.047L283.07 235.055L283.086 235.064L283.1 235.073L283.129 235.09L283.157 235.107L283.17 235.114L283.185 235.123L283.198 235.13L283.212 235.139L283.225 235.146L283.238 235.154L283.252 235.162L283.264 235.168L283.277 235.176L283.287 235.182L283.3 235.189L283.312 235.195L283.324 235.203L283.337 235.21H283.347L283.36 235.217H283.369L283.382 235.225H283.391H283.402H283.412H283.42L283.432 235.232H283.439L283.451 235.238H283.458H283.465H283.472H283.48H283.49H283.498H283.504H283.511H283.521H283.529H283.537H283.545H283.552H283.563H283.571L283.585 235.246H283.593L283.608 235.254H283.617L283.646 235.269H283.655L283.673 235.279H283.682L283.714 235.295L283.745 235.311L283.116 236.385C281.704 235.662 280.4 234.765 279.239 233.717C278.785 233.289 278.358 232.838 277.954 232.367ZM289.912 238.592L290.058 237.372L290.154 237.382H290.166H290.19H290.238H290.305H290.327H290.717H290.835H291.218H291.322H291.447H291.534H291.551H291.642H291.746H291.85H291.927C291.927 237.382 291.927 237.382 291.936 237.382C291.936 237.382 291.945 237.382 291.95 237.382H291.962C291.962 237.382 291.962 237.382 291.971 237.382C291.971 237.382 291.979 237.382 291.983 237.382H292.036H292.127H292.253H292.318H292.408H292.435H292.499H294.386H294.396H294.42H294.43H294.444H294.483H294.506H294.519H294.532H294.572H294.594H294.607H294.62H294.632H294.645H294.658H294.68H294.72H294.732H294.746H294.768H294.778H294.793H294.807H294.819H294.832H294.855H294.879H294.892H294.905H294.918H294.94H294.953H294.966H294.979H294.993H295.022H295.045H295.068H295.079H295.093H295.105H295.128H295.152H295.161H295.175H295.187H295.21H295.235H295.243H295.258H295.281H295.305H295.328H295.339H295.354H295.366H295.38H295.391H295.413H295.423H295.439H295.448H295.463H295.474H295.497H295.508H295.523H295.541H295.566H295.59H295.597H295.613H295.621H295.645H295.669H295.692H295.703H295.727H295.751H295.775H295.801H295.817H295.825H295.849H295.873H295.883H295.899H295.909H295.933H295.957H295.965H295.99H296.015H296.041L296.074 237.373H296.099L296.125 237.367L296.185 237.352L296.21 237.346L296.243 237.337L296.269 237.331L296.295 237.325L296.467 237.281H296.484L296.836 238.463C295.243 238.885 293.596 239.099 291.941 239.098C291.256 238.965 290.579 238.796 289.915 238.591L289.912 238.592ZM302.247 234.113C302.68 233.79 303.098 233.446 303.501 233.08L303.513 233.071L303.525 233.061L303.558 233.03L303.567 233.021L303.578 233.012L303.6 232.981L303.609 232.972L303.618 232.964L303.629 232.954L303.64 232.944L303.651 232.934L303.658 232.927L303.666 232.92L303.687 232.9L303.695 232.893L303.703 232.885L303.71 232.878L303.721 232.868L303.733 232.857L303.742 232.848L303.753 232.837L303.762 232.829L303.772 232.82L303.783 232.809L303.792 232.8L303.801 232.792L303.812 232.781L303.821 232.772L303.831 232.762L303.843 232.751L303.852 232.743L303.864 232.732L303.873 232.722L303.881 232.713L303.891 232.702L303.9 232.694L303.909 232.685L303.92 232.674L303.929 232.665L303.939 232.654L303.951 232.643L303.96 232.635L303.972 232.624L303.982 232.613L303.991 232.604L304.002 232.593L304.011 232.583L304.12 232.49L304.13 232.479L304.138 232.47L304.148 232.46L304.159 232.449L304.168 232.441L304.18 232.43L304.19 232.419L304.199 232.41L304.21 232.399L304.219 232.389L304.25 232.354L304.26 232.343L304.269 232.333L304.28 232.322L304.291 232.311L304.301 232.301L304.323 232.278L304.332 232.268L304.354 232.244L304.364 232.235L304.376 232.222L304.386 232.213L304.397 232.201L304.407 232.189L304.416 232.179L304.438 232.156L304.479 232.122L304.501 232.098L304.51 232.089L304.52 232.076L304.531 232.065L304.541 232.054L304.553 232.042L304.562 232.031L304.584 232.008L304.594 231.996L304.616 231.972L304.627 231.961L304.649 231.936L304.671 231.912L304.681 231.901L304.703 231.876L304.714 231.865L304.736 231.841L304.746 231.83L304.768 231.805L304.779 231.793L304.791 231.78L304.801 231.769L304.823 231.745L304.833 231.734L304.854 231.709L304.863 231.698L304.884 231.674L304.895 231.661L304.905 231.649L304.915 231.637L304.936 231.612L304.945 231.601L304.966 231.577L304.975 231.566L304.996 231.541L305.005 231.53L305.015 231.518L305.025 231.507L305.035 231.494L305.045 231.482L305.054 231.471L305.075 231.447L305.084 231.435L305.105 231.411L305.114 231.4L305.125 231.388L305.134 231.377L305.143 231.366L305.153 231.353L305.162 231.342L305.182 231.318L305.19 231.308L305.209 231.283L305.217 231.273L305.227 231.261L305.236 231.25L305.244 231.239L305.253 231.227L305.261 231.217L305.27 231.206L305.279 231.194L305.287 231.184L305.307 231.159L305.314 231.149L305.323 231.137L305.42 231.017L305.426 231.008L305.435 230.996L305.442 230.987L305.448 230.979L305.457 230.968V230.96L305.465 230.951L305.473 230.941V230.932L305.482 230.921V230.913V230.905L305.55 230.848V230.84V230.834V230.827L305.556 230.818V230.812V230.805V230.797V230.79V230.784V230.776L305.563 230.768V230.762V230.755L305.573 230.741V230.735L305.583 230.72V230.712V230.705L305.595 230.69V230.682V230.673L305.607 230.656V230.647L305.626 230.62V230.612L305.647 230.584L305.676 230.544C305.9 230.228 306.112 229.905 306.31 229.576L307.439 230.183C306.682 231.469 305.752 232.657 304.672 233.717C304.162 234.201 303.621 234.655 303.054 235.078L302.25 234.114L302.247 234.113ZM308.503 223.706L308.522 223.56V223.512V223.497V223.464V223.447V223.417V223.172V223.144V223.063V223.033V223.015V222.985V222.953V222.924V222.907V222.876V222.859V222.813V222.792V222.762V222.745V222.699V222.682V222.651V222.634V222.589V221.688H309.822C309.822 222.414 309.774 223.139 309.678 223.859L308.503 223.706Z" stroke="#3F7A64"/>
</svg>
