<svg width="364" height="364" viewBox="0 0 364 364" fill="none" xmlns="http://www.w3.org/2000/svg">
<path d="M256.41 108.508C285.922 123.651 324.57 136.618 332.421 157.795C340.278 179.032 317.28 208.41 297.351 237.971C277.356 267.592 260.429 297.275 235.069 306.562C209.772 315.852 176.044 304.691 143.85 292.385C111.655 280.078 80.9973 266.689 60.0452 242.853C39.0931 219.084 27.8504 184.879 30.3421 149.828C32.8364 114.721 49.1228 78.7018 77.4212 63.4386C105.72 48.1146 146.092 53.5437 176.434 64.8867C206.712 76.1726 226.963 93.4257 256.41 108.508Z" fill="#98D7B3"/>
<path d="M210.542 297.165C209.457 297.165 208.416 296.758 207.648 296.033C206.88 295.308 206.449 294.325 206.449 293.3L205.459 285.263C188.328 289.679 170.257 289.679 153.126 285.263L152.137 293.3C152.137 294.325 151.705 295.308 150.938 296.033C150.17 296.758 149.129 297.165 148.043 297.165H134.957C133.872 297.165 132.831 296.758 132.063 296.033C131.295 295.308 130.864 294.325 130.864 293.3L126.896 273.949C116.081 267.229 107.34 257.928 101.559 246.989L95.7826 248.047C94.4803 248.285 93.1309 248.026 92.0312 247.325C90.9315 246.624 90.1715 245.54 89.9184 244.31C89.8728 241.327 89.5557 238.354 88.9705 235.423C88.2384 232.147 87.2793 228.921 86.0995 225.764C85.8467 224.534 86.1216 223.259 86.8636 222.221C87.6056 221.182 88.754 220.464 90.0562 220.225L95.4386 219.234C96.2304 205.347 102.083 192.147 112.005 181.871C111.185 180.216 110.541 178.49 110.08 176.716C108.078 168.816 107.398 162.313 104.304 160.308C101.21 158.303 107.209 156.511 113.774 155.454C118.619 154.971 123.509 155.067 128.328 155.738C133.67 156.722 138.772 158.637 143.372 161.384L143.392 161.404C154.82 157.137 167.004 154.963 179.293 155C222.352 155 257.85 180.827 262.655 214.085C265.434 212.885 267.761 210.916 269.328 208.439C271.484 204.583 272.676 200.313 272.814 195.955C272.96 195.724 273.179 195.541 273.44 195.434C273.702 195.326 273.992 195.298 274.271 195.354C274.55 195.41 274.803 195.547 274.995 195.745C275.187 195.944 275.309 196.195 275.343 196.462C275.343 196.462 279.104 207.364 277.115 214.277C275.416 220.176 268.813 228.089 262.421 230.978C259.432 248.314 248.072 263.526 231.702 273.959L227.733 293.3C227.733 294.325 227.302 295.308 226.534 296.033C225.767 296.758 224.726 297.165 223.64 297.165H210.542Z" fill="#010101"/>
<path d="M207.028 171.285C200.6 168.684 193.747 167.148 186.768 166.742C183.377 166.514 179.972 166.531 176.584 166.794C173.476 167.029 170.394 167.507 167.369 168.223C166.739 166.912 165.919 165.69 164.935 164.591C168.37 163.61 171.896 162.936 175.465 162.581C179.327 162.192 183.217 162.128 187.091 162.389C194.894 162.848 202.531 164.716 209.589 167.891C208.631 168.948 207.773 170.084 207.028 171.285Z" fill="#010101"/>
<path d="M125.533 214.937C128.045 214.937 130.082 213.013 130.082 210.641C130.082 208.268 128.045 206.345 125.533 206.345C123.021 206.345 120.984 208.268 120.984 210.641C120.984 213.013 123.021 214.937 125.533 214.937Z" fill="#010101"/>
<path d="M175.575 127.781C186.343 127.781 195.071 119.537 195.071 109.368C195.071 99.1995 186.343 90.9561 175.575 90.9561C164.808 90.9561 156.079 99.1995 156.079 109.368C156.079 119.537 164.808 127.781 175.575 127.781Z" fill="#D4B57C"/>
<path d="M187.274 143.615C190.44 143.617 193.557 144.347 196.358 145.741C199.158 147.135 201.557 149.151 203.348 151.616C205.139 154.082 206.268 156.921 206.637 159.891C207.006 162.86 206.605 165.869 205.468 168.659C199.297 166.272 192.754 164.854 186.098 164.463C182.224 164.201 178.333 164.265 174.472 164.653C172.347 164.865 170.238 165.19 168.152 165.626C167.59 162.955 167.663 160.2 168.363 157.559C169.064 154.918 170.376 152.457 172.205 150.352C174.033 148.247 176.333 146.552 178.939 145.387C181.544 144.222 184.391 143.617 187.274 143.615Z" fill="#D4B57C"/>
<path d="M210.669 54.0049C214.525 54.0049 218.294 55.0847 221.501 57.1079C224.707 59.1311 227.206 62.0067 228.681 65.3711C230.157 68.7355 230.543 72.4377 229.791 76.0093C229.038 79.5809 227.182 82.8617 224.455 85.4367C221.728 88.0117 218.254 89.7654 214.473 90.4758C210.691 91.1862 206.771 90.8216 203.208 89.428C199.646 88.0344 196.601 85.6745 194.459 82.6466C192.316 79.6187 191.173 76.0589 191.173 72.4172C191.173 67.534 193.227 62.8507 196.883 59.3977C200.539 55.9447 205.498 54.0049 210.669 54.0049Z" fill="#D4B57C"/>
</svg>
