<svg width="32" height="33" viewBox="0 0 32 33" fill="none" xmlns="http://www.w3.org/2000/svg">
<path d="M16.4122 15.1537C16.3985 16.2681 17.3744 16.89 18.1095 17.2598C18.8647 17.6391 19.1184 17.8824 19.1154 18.2217C19.1098 18.7409 18.513 18.97 17.9545 18.9789C16.9802 18.9945 16.4136 18.7074 15.9633 18.4902L15.6122 20.1856C16.0641 20.4005 16.9008 20.588 17.7685 20.5962C19.8052 20.5962 21.1377 19.5584 21.1449 17.9494C21.1529 15.9073 18.4085 15.7942 18.4273 14.8815C18.4338 14.6047 18.6896 14.3094 19.2502 14.2343C19.5277 14.1963 20.2937 14.1673 21.1623 14.5801L21.5031 12.9398C21.0361 12.7643 20.4358 12.5962 19.6884 12.5962C17.7714 12.5962 16.4231 13.6481 16.4122 15.1537ZM24.7786 12.7375C24.4067 12.7375 24.0933 12.9614 23.9534 13.3051L21.044 20.4757H23.0793L23.4842 19.3203H25.9713L26.2062 20.4757H28L26.4347 12.7375H24.7786ZM25.0633 14.8279L25.6506 17.7337H24.0421L25.0633 14.8279ZM13.9446 12.7376L12.3404 20.4756H14.2798L15.8833 12.7374H13.9446M11.0756 12.7374L9.05697 18.0044L8.24041 13.5261C8.14459 13.0262 7.76622 12.7375 7.34603 12.7375H4.04622L4 12.9622C4.67744 13.1139 5.44712 13.3587 5.91344 13.6205C6.19881 13.7805 6.28019 13.9203 6.37394 14.3005L7.92053 20.4757H9.97L13.1121 12.7375L11.0756 12.7374Z" fill="#00100A"/>
</svg>
