<svg width="21" height="20" viewBox="0 0 21 20" fill="none" xmlns="http://www.w3.org/2000/svg">
<path d="M19.7723 10.2263C19.7728 9.5405 19.7118 8.85606 19.5901 8.18115H10.1705V12.0481H15.5538C15.4428 12.6604 15.2087 13.2437 14.8656 13.7629C14.5225 14.2821 14.0776 14.7263 13.5578 15.0686V17.5747H16.7896C17.774 16.6271 18.5483 15.4833 19.0621 14.2173C19.576 12.9514 19.8179 11.5917 19.7723 10.2263Z" fill="#4285F4"/>
<path d="M10.17 19.9965C12.6049 20.0629 14.9732 19.1966 16.7901 17.5748L13.5562 15.0653C12.5476 15.7141 11.3679 16.0464 10.1689 16.0196C8.92219 16.0038 7.71181 15.5977 6.70807 14.8584C5.70433 14.1191 4.95775 13.0838 4.5734 11.8982L1.23167 11.8982V14.4888C2.0644 16.1448 3.34126 17.5368 4.91965 18.5094C6.49803 19.482 8.31582 19.9969 10.17 19.9965Z" fill="#34A853"/>
<path d="M4.57277 11.898C4.15462 10.6661 4.15462 9.33069 4.57277 8.09879V5.50822H1.23173C0.532233 6.90169 0.167969 8.43926 0.167969 9.99839C0.167969 11.5575 0.532233 13.0951 1.23173 14.4886L4.57277 11.898Z" fill="#FBBC05"/>
<path d="M10.17 3.97757C11.5915 3.95384 12.965 4.49107 13.9929 5.47282L16.8612 2.60564C15.0512 0.90581 12.6533 -0.0277435 10.17 0.00062824C8.3158 0.000274707 6.49801 0.515142 4.91962 1.48773C3.34124 2.46033 2.06438 3.85235 1.23165 5.50837L4.57338 8.09893C4.95779 6.91315 5.70454 5.87772 6.7085 5.1384C7.71246 4.39908 8.92309 3.99309 10.17 3.97757Z" fill="#EA4335"/>
</svg>
