<svg width="326" height="236" viewBox="0 0 326 236" fill="none" xmlns="http://www.w3.org/2000/svg">
<g filter="url(#filter0_d_1_135)">
<path d="M293.578 132.474L293.733 19.4237C293.733 15.5985 292.207 11.93 289.489 9.22508C286.771 6.52016 283.085 5.00037 279.242 5H25.4915C23.5883 5 21.7038 5.3731 19.9455 6.09797C18.1873 6.82284 16.5897 7.8853 15.244 9.22468C13.8983 10.5641 12.8309 12.1541 12.1027 13.9041C11.3745 15.654 10.9998 17.5296 11 19.4237V171.18C11 175.005 12.5268 178.673 15.2445 181.378C17.9622 184.083 21.6481 185.602 25.4915 185.602L218.49 184.496C218.49 184.496 205.183 150.443 245.42 127.11C265.185 115.652 293.578 132.474 293.578 132.474Z" fill="url(#paint0_linear_1_135)"/>
</g>
<path d="M80.0303 139.085H30.8295V150.721H80.0303V139.085Z" fill="#F2F2F2"/>
<path d="M125.115 101.171H30.8295V125.875H125.115V101.171Z" fill="#F2F2F2"/>
<path d="M293.656 33.3359H11.0057V72.5777H293.656V33.3359Z" fill="#F2F2F2"/>
<path d="M144.09 139.085H94.8886V150.721H144.09V139.085Z" fill="#F2F2F2"/>
<path d="M208.149 139.085H158.948V150.721H208.149V139.085Z" fill="#F2F2F2"/>
<g filter="url(#filter1_d_1_135)">
<path d="M265.656 221C292.908 221 315 199.014 315 171.892C315 144.77 292.908 122.784 265.656 122.784C238.404 122.784 216.312 144.77 216.312 171.892C216.312 199.014 238.404 221 265.656 221Z" fill="white" stroke="#F2F2F2" stroke-width="5" stroke-miterlimit="10"/>
</g>
<path d="M266.695 168.233L271.195 163.81C277.631 167.999 278.85 177.947 273.296 183.99C268.907 188.769 264.288 193.366 259.488 197.735C258.145 198.947 256.574 199.883 254.867 200.489C253.159 201.095 251.348 201.36 249.537 201.267C247.727 201.175 245.952 200.728 244.316 199.951C242.68 199.174 241.214 198.084 240.002 196.742C237.525 194.167 236.141 190.74 236.139 187.176C236.136 183.611 237.515 180.183 239.988 177.604C242.798 174.633 245.781 171.823 248.791 168.834C249.014 170.283 249.223 171.642 249.432 173.002C249.434 173.224 249.475 173.443 249.553 173.651C250.725 175.664 249.841 177.031 248.257 178.341C247.024 179.432 245.852 180.592 244.749 181.813C243.351 183.263 242.579 185.2 242.598 187.21C242.616 189.219 243.424 191.141 244.849 192.566C246.273 193.99 248.201 194.803 250.22 194.83C252.239 194.858 254.188 194.098 255.652 192.714C258.727 189.75 261.713 186.693 264.738 183.677C265.652 182.765 266.566 181.855 267.481 180.945C271.75 176.698 271.454 171.953 266.695 168.233Z" fill="#666666"/>
<path d="M282.645 174.939C282.134 172.606 281.631 170.501 281.241 168.375C281.205 168.119 281.222 167.858 281.29 167.608C281.358 167.358 281.477 167.124 281.638 166.921C283.188 165.262 284.832 163.7 286.425 162.083C287.141 161.367 287.709 160.518 288.095 159.585C288.482 158.651 288.68 157.65 288.678 156.64C288.676 155.63 288.474 154.63 288.083 153.698C287.693 152.766 287.122 151.919 286.403 151.206C285.684 150.494 284.831 149.929 283.893 149.544C282.954 149.159 281.949 148.963 280.934 148.965C279.919 148.967 278.915 149.168 277.978 149.556C277.041 149.944 276.19 150.513 275.474 151.228C271.645 155.013 267.974 158.969 263.973 162.563C259.792 166.329 259.685 172.146 264.627 175.581L260.173 179.973C256.36 177.675 253.841 171.804 254.605 167.043C255.087 163.862 256.604 160.927 258.924 158.688C262.919 154.754 266.862 150.767 270.856 146.833C272.647 144.996 274.907 143.68 277.394 143.028C279.881 142.376 282.5 142.413 284.967 143.134C287.435 143.855 289.658 145.233 291.396 147.119C293.134 149.005 294.322 151.328 294.831 153.837C295.323 155.742 295.352 157.737 294.916 159.657C294.48 161.576 293.591 163.364 292.322 164.874C289.3 168.404 285.888 171.6 282.645 174.939Z" fill="#666666"/>
<defs>
<filter id="filter0_d_1_135" x="0" y="0" width="304.733" height="202.602" filterUnits="userSpaceOnUse" color-interpolation-filters="sRGB">
<feFlood flood-opacity="0" result="BackgroundImageFix"/>
<feColorMatrix in="SourceAlpha" type="matrix" values="0 0 0 0 0 0 0 0 0 0 0 0 0 0 0 0 0 0 127 0" result="hardAlpha"/>
<feOffset dy="6"/>
<feGaussianBlur stdDeviation="5.5"/>
<feColorMatrix type="matrix" values="0 0 0 0 0 0 0 0 0 0 0 0 0 0 0 0 0 0 0.161 0"/>
<feBlend mode="normal" in2="BackgroundImageFix" result="effect1_dropShadow_1_135"/>
<feBlend mode="normal" in="SourceGraphic" in2="effect1_dropShadow_1_135" result="shape"/>
</filter>
<filter id="filter1_d_1_135" x="205.812" y="116.284" width="119.688" height="119.216" filterUnits="userSpaceOnUse" color-interpolation-filters="sRGB">
<feFlood flood-opacity="0" result="BackgroundImageFix"/>
<feColorMatrix in="SourceAlpha" type="matrix" values="0 0 0 0 0 0 0 0 0 0 0 0 0 0 0 0 0 0 127 0" result="hardAlpha"/>
<feOffset dy="4"/>
<feGaussianBlur stdDeviation="4"/>
<feColorMatrix type="matrix" values="0 0 0 0 0 0 0 0 0 0 0 0 0 0 0 0 0 0 0.161 0"/>
<feBlend mode="normal" in2="BackgroundImageFix" result="effect1_dropShadow_1_135"/>
<feBlend mode="normal" in="SourceGraphic" in2="effect1_dropShadow_1_135" result="shape"/>
</filter>
<linearGradient id="paint0_linear_1_135" x1="152.367" y1="5" x2="152.367" y2="185.602" gradientUnits="userSpaceOnUse">
<stop stop-color="#7CC79F"/>
<stop offset="1" stop-color="#3F7A64"/>
</linearGradient>
</defs>
</svg>
