<svg width="48" height="48" viewBox="0 0 48 48" fill="none" xmlns="http://www.w3.org/2000/svg">
<path d="M23.3257 47.1349C36.1537 47.0712 46.7279 36.6253 46.9437 23.8033C47.1596 10.9812 36.9355 0.638503 24.1075 0.702141C11.2795 0.765779 0.705376 11.2117 0.489497 24.0337C0.273619 36.8558 10.4978 47.1985 23.3257 47.1349Z" fill="#018485"/>
<path fill-rule="evenodd" clip-rule="evenodd" d="M34.2549 14.8839C34.4294 15.0187 34.5748 15.189 34.6823 15.3845C34.7898 15.5801 34.8572 15.7968 34.8804 16.0218C34.9036 16.2467 34.8821 16.4751 34.8173 16.6933C34.7524 16.9115 34.6456 17.1149 34.5031 17.2913L34.4823 17.3161L21.6376 32.7288C21.4491 32.9525 21.214 33.1296 20.9504 33.2464C20.6868 33.3632 20.4019 33.4165 20.1178 33.4022C19.8287 33.4219 19.5403 33.3773 19.2722 33.2716C19.0041 33.1659 18.7626 33.0015 18.5642 32.7896L12.5015 26.2559C12.3508 26.0956 12.234 25.9048 12.1581 25.6951C12.0822 25.4854 12.0487 25.2611 12.0598 25.0358C12.0708 24.8105 12.1262 24.5888 12.2224 24.3841C12.3187 24.1794 12.4538 23.996 12.6198 23.8449L12.6855 23.7875C13.0641 23.4757 13.5389 23.3174 14.0175 23.3435C14.4961 23.3697 14.9442 23.5783 15.2743 23.9288L19.8895 28.9305L31.7313 15.1589C32.0463 14.7929 32.4824 14.5607 32.9512 14.5096C33.4199 14.4586 33.886 14.5924 34.2549 14.8839Z" fill="white"/>
</svg>
